<?xml version="1.0" encoding="utf-8"?>
<svg viewBox="0 0 4096 1024" xmlns="http://www.w3.org/2000/svg">
  <g id="g8" transform="matrix(0.4671130180358886, 0, 0, -0.4671130180358886, 31.74028396606434, 1003.2609863281249)" style="">
    <g id="g10" transform="scale(0.1)">
      <g id="g12">
        <g id="g14" style="" transform="matrix(1.406886, 0, 0, 1.406886, -863.699463, -10530.928711)">
          <g transform="matrix(1, 0, 0, 1, -1175.610718, 4783.270996)">
            <path d="M 4746.773 11418.867 L 4756.683 10976.506 L 5159.08 11412.045 L 4746.773 11418.867 Z" style="fill: rgb(255, 255, 255); fill-opacity: 1; fill-rule: nonzero; stroke: none; transform-box: fill-box; transform-origin: 50% 50%;" id="path22" transform="matrix(0.915558, 0.402186, -0.402186, 0.915558, -0.000182, 0.000159)"/>
            <path d="M 5120.217 8781.639 L 4939.431 8667.818 L 5050.021 8854.887 C 5058.89 8840.884 5066.969 8830.471 5073.898 8824.726 C 5090.666 8807.851 5106.178 8793.129 5120.217 8781.639" style="fill: rgb(59, 57, 61); fill-opacity: 1; fill-rule: nonzero; stroke: none; transform-box: fill-box; transform-origin: 50% 50%;" id="path24" transform="matrix(0.915558, 0.402186, -0.402186, 0.915558, -0.000147, 0.000094)"/>
            <path d="M 4934.589 8865.591 L 4719.477 8817.118 L 4884.68 8985.876 C 4900.048 8944.584 4917.534 8902.574 4934.589 8865.591" style="fill: rgb(59, 57, 61); fill-opacity: 1; fill-rule: nonzero; stroke: none; transform-box: fill-box; transform-origin: 50% 50%;" id="path26" transform="matrix(0.915558, 0.402186, -0.402186, 0.915558, -0.000071, 0.000031)"/>
            <path d="M 4778.411 9040.708 L 4627.965 8952.738 L 4757.944 9168.533 C 4757.083 9159.556 4756.472 9150.221 4756.293 9140.167 C 4754.569 9126.523 4763.582 9088.822 4778.411 9040.708" style="fill: rgb(59, 57, 61); fill-opacity: 1; fill-rule: nonzero; stroke: none; transform-box: fill-box; transform-origin: 50% 50%;" id="path28" transform="matrix(0.915558, 0.402186, -0.402186, 0.915558, -0.000171, -0.000085)"/>
            <path d="M 7929.6 5674.759 C 7864.503 5301.697 7353.347 4783.575 6998.884 4755.927 C 6629.52 4703.146 5838.908 5190.03 5717.079 5479.431 C 7095.399 5684.813 6254.123 6591.437 6653.936 7542.943 C 6761.474 7824.446 6965.132 8038.086 7190.513 8221.924 C 7182.04 8064.297 7174.428 7906.311 7163.979 7750.838 C 7139.06 7293.756 7135.506 6811.899 7313.778 6391.8 C 7425.158 6129.328 7748.635 5835.618 7929.565 5675.118 L 7929.78 5675.118 L 7929.6 5674.759" style="fill: rgb(233, 171, 167); fill-opacity: 1; fill-rule: nonzero; stroke: none; transform-box: fill-box; transform-origin: 50% 50%;" id="path30" transform="matrix(0.915558, 0.402186, -0.402186, 0.915558, -0.000056, 0.000215)"/>
            <path d="M 6939.384 4751.978 C 6550.811 4751.978 5832.693 5204.751 5717.076 5479.431 C 6443.919 5587.867 6553.54 5890.913 6553.396 6293.059 C 6553.324 6467.203 6532.642 6660.017 6532.678 6863.604 C 6532.678 7081.193 6556.304 7310.632 6653.933 7542.943 C 6761.471 7824.446 6965.129 8038.086 7190.51 8221.924 C 7182.036 8064.297 7174.424 7906.311 7163.976 7750.838 C 7156.974 7622.295 7151.66 7491.957 7151.588 7361.259 C 7151.445 7027.694 7185.663 6693.769 7313.775 6391.8 C 7425.155 6129.328 7748.632 5835.618 7929.561 5675.118 L 7929.777 5675.118 L 7929.597 5674.759 C 7864.5 5301.697 7353.344 4783.575 6998.88 4755.927 C 6980.102 4753.414 6960.174 4751.978 6939.384 4751.978" style="fill: rgb(217, 160, 156); fill-opacity: 1; fill-rule: nonzero; stroke: none; transform-box: fill-box; transform-origin: 50% 50%;" id="path32" transform="matrix(0.915558, 0.402186, -0.402186, 0.915558, -0.000111, 0.000177)"/>
            <path d="M 6515.609 6748.795 C 6334.679 6909.294 6011.203 7203.004 5899.822 7465.476 C 5721.55 7885.575 5725.104 8367.433 5750.023 8824.515 C 5760.472 8979.987 5768.084 9137.973 5776.557 9295.6 C 5797.85 9683.743 5824.923 10075.117 5913.359 10448.538 C 5958.457 10640.635 6020.143 10827.346 6105.384 11006.875 C 6162.474 11127.878 6230.444 11245.29 6311.268 11358.394 C 5487.623 12077.589 3428.096 12528.926 3631.683 13722.438 C 3841.696 14600.338 4343.84 15485.777 5311.361 15872.484 C 6536.111 16377.68 8404.115 15127.077 9252.285 14261.386 C 10143.936 13350.812 9505.529 12347.242 9150.384 11291.25 L 9150.24 11291.609 L 7969.798 11034.164 L 8979.148 10607.602 L 8979.4 10607.602 C 8961.806 10483.726 8953.368 10359.492 8956.456 10234.539 L 7961.037 9629.884 L 9083.347 9579.616 C 9123.634 9457.895 9171.245 9337.251 9225.283 9216.966 L 8327.456 8664.015 L 9553.176 8611.952 C 9614.288 8515.724 9678.739 8419.855 9746.134 8325.423 L 9001.482 7620.231 L 10092.734 7879.112 C 10185.192 7768.881 10281.06 7660.804 10379.443 7554.523 L 9884.767 6863.334 L 10725.504 7199.773 C 10842.341 7085.592 10961.19 6975.361 11080.649 6868.361 L 10778.034 6348.803 L 11341.9 6641.436 C 11608.861 6416.306 11874.78 6211.642 12125.977 6031.754 C 12611.497 5684.544 13170.013 5198.019 13729.068 5014.181 C 12888.044 4925.134 11933.594 5219.921 11088.907 5306.095 C 10195.138 5384.729 8824.107 5459.055 7991.952 5925.113 C 8077.372 5561.745 7544.133 4869.121 7152.4 4804.49 C 6789.14 4719.034 5958.959 5135.183 5812.212 5412.736 C 6777.542 5644.688 6589.754 6131.931 6515.645 6748.435 L 6515.824 6748.795 L 6515.609 6748.795 M 5449.706 12837.717 L 5423.567 12534.671 L 5628.589 12821.2 C 5568.375 12824.432 5508.52 12829.818 5449.706 12837.717" style="fill: rgb(233, 171, 167); fill-opacity: 1; fill-rule: nonzero; stroke: none; transform-box: fill-box; transform-origin: 50% 50%;" id="path34" transform="matrix(0.915558, 0.402186, -0.402186, 0.915558, 0.000092, -0.00048)"/>
            <path d="M 12661.614 7920.702 L 12097.748 7628.069 L 12400.363 8147.627 C 12487.255 8069.712 12574.542 7994.309 12661.614 7920.702" style="fill: rgb(59, 57, 61); fill-opacity: 1; fill-rule: nonzero; stroke: none; transform-box: fill-box; transform-origin: 50% 50%;" id="path36" transform="matrix(0.915558, 0.402186, -0.402186, 0.915558, -0.000109, 0.000252)"/>
            <path d="M 11867.508 8124.752 L 11026.735 7788.313 L 11521.447 8479.502 C 11633.904 8358.14 11749.629 8239.651 11867.508 8124.752" style="fill: rgb(59, 57, 61); fill-opacity: 1; fill-rule: nonzero; stroke: none; transform-box: fill-box; transform-origin: 50% 50%;" id="path38" transform="matrix(0.915558, 0.402186, -0.402186, 0.915558, 0.000204, 0.000009)"/>
            <path d="M 10991.484 8434.717 L 9900.268 8175.835 L 10644.92 8881.027 C 10753.464 8729.504 10869.404 8580.495 10991.484 8434.717" style="fill: rgb(59, 57, 61); fill-opacity: 1; fill-rule: nonzero; stroke: none; transform-box: fill-box; transform-origin: 50% 50%;" id="path40" transform="matrix(0.915558, 0.402186, -0.402186, 0.915558, -0.00007, 0.000113)"/>
            <path d="M 10124.486 8844.004 L 8898.767 8896.068 L 9796.594 9449.018 C 9888.549 9244.355 9999.319 9042.205 10124.486 8844.004" style="fill: rgb(59, 57, 61); fill-opacity: 1; fill-rule: nonzero; stroke: none; transform-box: fill-box; transform-origin: 50% 50%;" id="path42" transform="matrix(0.915558, 0.402186, -0.402186, 0.915558, 0.000109, 0.000065)"/>
            <path d="M 9290.747 9559.692 L 8168.436 9609.96 L 9163.855 10214.615 C 9166.405 10108.693 9177.536 10002.052 9198.684 9895.412 C 9222.885 9783.026 9253.8 9671 9290.747 9559.692" style="fill: rgb(59, 57, 61); fill-opacity: 1; fill-rule: nonzero; stroke: none; transform-box: fill-box; transform-origin: 50% 50%;" id="path44" transform="matrix(0.915558, 0.402186, -0.402186, 0.915558, -0.00037, 0.000137)"/>
            <path d="M 8764.058 10514.878 L 7754.671 10941.44 L 8935.114 11198.886 L 8935.293 11198.527 C 8859.352 10972.678 8796.302 10744.676 8764.058 10514.878" style="fill: rgb(59, 57, 61); fill-opacity: 1; fill-rule: nonzero; stroke: none; transform-box: fill-box; transform-origin: 50% 50%;" id="path46" transform="matrix(0.915558, 0.402186, -0.402186, 0.915558, 0.000087, -0.00012)"/>
            <path d="M 4920.144 9012.062 C 4906.105 9023.552 4890.594 9038.273 4873.826 9055.149 C 4866.896 9060.894 4858.817 9071.307 4849.948 9085.31 C 4836.914 9105.776 4822.516 9133.783 4808.01 9165.739 C 4790.955 9202.722 4773.469 9244.732 4758.101 9286.024 C 4746.108 9317.98 4735.265 9349.218 4726.288 9377.225 C 4711.459 9425.339 4702.447 9463.04 4704.17 9476.684 C 4704.35 9486.738 4704.96 9496.073 4705.822 9505.05 C 4720.4 9672.012 4841.582 9701.455 5017.449 9733.771 C 5210.013 9764.65 5429.254 9708.995 5592.877 9591.942 C 5701.923 9514.026 5785.979 9408.822 5821.382 9283.511 C 5933.229 9404.513 6096.386 9564.295 6253.079 9634.311 C 6167.838 9454.782 6106.152 9268.071 6061.054 9075.974 C 5941.847 9017.807 5820.952 8971.129 5687.023 9013.139 C 5501.461 9063.407 5480.887 9174.716 5251.556 9086.387 C 5077.484 9012.78 5055.905 8897.881 4920.144 9012.062" style="fill: rgb(233, 171, 167); fill-opacity: 1; fill-rule: nonzero; stroke: none; transform-box: fill-box; transform-origin: 50% 50%;" id="path48" transform="matrix(0.915558, 0.402186, -0.402186, 0.915558, -0.000189, 0.000088)"/>
            <path d="M 5019.794 8963.603 C 4992.146 8963.603 4961.447 8977.248 4920.227 9012.076 C 4906.188 9023.566 4890.676 9038.288 4873.908 9055.163 C 4866.978 9060.908 4858.9 9071.321 4850.031 9085.324 C 4836.997 9105.791 4822.599 9133.797 4808.093 9165.754 C 4791.037 9202.737 4773.551 9244.747 4758.184 9286.038 C 4746.191 9317.995 4735.347 9349.233 4726.371 9377.239 C 4712.691 9421.404 4703.966 9456.95 4704.037 9473.108 C 4704.037 9474.544 4704.109 9475.621 4704.253 9476.699 C 4704.432 9486.752 4705.043 9496.088 4705.905 9505.064 C 4720.482 9672.027 4841.665 9701.47 5017.532 9733.785 C 5052.899 9739.53 5089.164 9742.043 5125.788 9742.043 C 5288.729 9742.043 5459.39 9687.466 5592.96 9591.957 C 5702.006 9514.041 5786.062 9408.836 5821.465 9283.525 C 5933.312 9404.528 6096.468 9564.309 6253.162 9634.326 C 6167.921 9454.796 6106.235 9268.085 6061.137 9075.989 C 5973.85 9033.261 5885.665 8996.996 5792.166 8996.996 C 5757.912 8996.996 5722.975 9001.664 5687.105 9013.153 C 5551.273 9049.777 5503.841 9119.435 5398.278 9119.435 C 5359.607 9119.435 5313.109 9110.099 5251.638 9086.401 C 5130.456 9035.056 5083.168 8963.603 5019.794 8963.603" style="fill: rgb(217, 160, 156); fill-opacity: 1; fill-rule: nonzero; stroke: none; transform-box: fill-box; transform-origin: 50% 50%;" id="path50" transform="matrix(0.915558, 0.402186, -0.402186, 0.915558, 0.000355, 0.000131)"/>
            <path d="M 7716.858 6281.522 C 7711.257 6285.472 7707.343 6291.576 7706.446 6299.116 C 7678.224 6535.018 7662.102 6815.802 7756.858 7111.667 C 7882.887 7552.591 8244.173 7862.1 8562.873 8134.985 C 8612.352 8177.713 8661.004 8219.364 8707.933 8260.656 C 8718.418 8269.991 8734.432 8268.914 8743.659 8258.501 C 8752.887 8247.729 8751.918 8231.931 8741.433 8222.595 C 8694.325 8181.304 8645.493 8139.294 8595.871 8096.566 C 8282.484 7828.349 7927.411 7524.226 7805.295 7096.945 C 7713.304 6809.698 7729.102 6535.377 7756.714 6305.22 C 7758.366 6291.217 7748.456 6278.65 7734.56 6276.855 C 7728.061 6276.136 7721.813 6277.932 7716.858 6281.522" style="fill: rgb(59, 57, 61); fill-opacity: 1; fill-rule: nonzero; stroke: none; transform-box: fill-box; transform-origin: 50% 50%;" id="path52" transform="matrix(0.915558, 0.402186, -0.402186, 0.915558, -0.000077, -0.000252)"/>
            <path d="M 3091.946 11719.187 C 2993.959 11789.203 2894.033 11866.76 2792.275 11952.216 L 2770.409 11970.528 C 2759.673 11979.146 2758.165 11995.303 2767.105 12006.075 C 2776.01 12016.847 2791.737 12017.924 2802.724 12009.307 L 2824.806 11990.995 C 3557.825 11375.208 4199.033 11183.112 4607.857 11130.33 C 4665.199 11122.431 4724.695 11117.045 4784.838 11113.813 C 5013.558 11101.246 5239.622 11123.149 5456.924 11178.803 C 5470.497 11182.394 5484.284 11174.135 5487.767 11160.85 C 5491.25 11147.206 5483.064 11133.562 5469.527 11129.971 C 5247.198 11072.881 5015.892 11050.26 4782.073 11063.186 C 4720.638 11066.777 4659.813 11072.163 4601.251 11080.062 C 4242.802 11126.381 3708.666 11277.903 3091.946 11719.187" style="fill: rgb(59, 57, 61); fill-opacity: 1; fill-rule: nonzero; stroke: none; transform-box: fill-box; transform-origin: 50% 50%;" id="path54" transform="matrix(0.915558, 0.402186, -0.402186, 0.915558, -0.000398, -0.000002)"/>
            <path d="M 5715.853 8680.248 L 5528.245 8417.776 L 5755.493 8525.135" style="fill: rgb(59, 57, 61); fill-opacity: 1; fill-rule: nonzero; stroke: none; transform-box: fill-box; transform-origin: 50% 50%;" id="path56" transform="matrix(0.915558, 0.402186, -0.402186, 0.915558, 0.00016, -0.000166)"/>
            <path d="M 5915.754 8501.089 L 5765.488 8291.039 L 6005.698 8393.012" style="fill: rgb(59, 57, 61); fill-opacity: 1; fill-rule: nonzero; stroke: none; transform-box: fill-box; transform-origin: 50% 50%;" id="path58" transform="matrix(0.915558, 0.402186, -0.402186, 0.915558, -0.000106, -0.000158)"/>
            <path d="M 6191.561 8419.234 L 6117.774 8207.389 L 6309.584 8387.637" style="fill: rgb(59, 57, 61); fill-opacity: 1; fill-rule: nonzero; stroke: none; transform-box: fill-box; transform-origin: 50% 50%;" id="path60" transform="matrix(0.915558, 0.402186, -0.402186, 0.915558, -0.000048, -0.000169)"/>
            <path d="M 7073.055 9604.082 C 6919.989 9506.059 6790.332 9266.926 6709.795 9096.373 C 6531.594 9369.257 6098.246 9430.297 5807.839 9285.597 C 5641.056 9197.268 5531.22 9130.842 5585.941 8946.286 C 5593.732 8899.249 5809.24 8620.619 5873.906 8595.126 C 6099.323 8475.2 6066.11 8602.666 6225.066 8738.032 C 6417.414 8890.632 6470.267 8790.454 6662.436 8798.354 C 6952.663 8797.995 7076.574 9145.205 7331.578 9211.63" style="fill: rgb(233, 171, 167); fill-opacity: 1; fill-rule: nonzero; stroke: none; transform-box: fill-box; transform-origin: 50% 50%;" id="path62" transform="matrix(0.915558, 0.402186, -0.402186, 0.915558, 0.000203, 0.000106)"/>
            <path d="M 5844.974 8582.95 C 5761.421 8642.913 5574.53 8882.764 5561.389 8940.214 C 5499.343 9150.982 5643.47 9227.102 5796.07 9307.89 C 6071.719 9445.41 6500.508 9408.786 6705.494 9145.955 C 6824.953 9390.115 6943.91 9551.332 7059.419 9625.298 C 7071.16 9632.839 7086.851 9629.607 7094.391 9617.758 C 7101.931 9605.909 7098.484 9590.111 7086.671 9582.57 C 6973.316 9510.041 6854.217 9343.078 6732.675 9085.633 C 6728.761 9077.374 6720.718 9071.629 6711.562 9071.27 C 6702.406 9070.552 6693.645 9074.861 6688.619 9082.401 C 6510.31 9355.286 6087.267 9396.578 5819.157 9262.649 C 5653.272 9175.038 5561.532 9117.589 5610.221 8953.499 L 5610.903 8950.627 C 5619.161 8911.13 5825.225 8641.477 5883.213 8618.497 L 5885.834 8617.42 C 6026.37 8542.736 6045.795 8567.87 6103.496 8642.554 C 6128.738 8675.228 6160.156 8715.802 6208.7 8757.094 C 6348.374 8868.402 6425.464 8854.04 6514.69 8837.523 C 6555.623 8829.983 6602.014 8821.365 6661.438 8823.52 C 6813.32 8823.52 6916.262 8923.697 7025.236 9029.62 C 7113.744 9115.794 7205.269 9204.84 7325.158 9236.079 C 7338.695 9239.669 7352.519 9231.411 7356.073 9218.126 C 7359.556 9204.481 7351.513 9190.478 7337.977 9187.246 C 7230.977 9159.24 7148.214 9078.811 7060.496 8993.355 C 6949.08 8884.919 6833.858 8772.892 6662.407 8772.892 C 6598.387 8770.379 6549.016 8779.715 6505.463 8787.614 C 6418.965 8803.771 6361.839 8814.184 6240.8 8718.315 C 6196.959 8680.973 6168.629 8643.99 6143.567 8611.675 C 6075.884 8524.065 6032.51 8482.414 5863.106 8572.178 C 5857.792 8574.333 5851.724 8578.282 5844.974 8582.95" style="fill: rgb(59, 57, 61); fill-opacity: 1; fill-rule: nonzero; stroke: none; transform-box: fill-box; transform-origin: 50% 50%;" id="path64" transform="matrix(0.915558, 0.402186, -0.402186, 0.915558, 0.000223, -0.000077)"/>
            <path d="M 5321.44 12835.114 C 5130.277 12567.974 4848.092 12442.662 4691.148 12555.048 C 4534.167 12667.433 4561.851 12974.788 4752.978 13241.928 C 4944.105 13509.068 5226.289 13634.379 5383.27 13521.994 C 5540.25 13409.967 5512.567 13102.254 5321.44 12835.114" style="fill: rgb(255, 255, 255); fill-opacity: 1; fill-rule: nonzero; stroke: none; transform-box: fill-box; transform-origin: 50% 50%;" id="path66" transform="matrix(0.915558, 0.402186, -0.402186, 0.915558, -0.000212, 0.000136)"/>
            <path d="M 5167.26 12922.096 C 5048.555 12756.211 4873.262 12678.295 4775.742 12747.952 C 4678.221 12817.61 4695.42 13008.629 4814.161 13174.514 C 4932.902 13340.759 5108.194 13418.675 5205.715 13348.658 C 5303.235 13279.001 5286 13087.981 5167.26 12922.096" style="fill: rgb(59, 57, 61); fill-opacity: 1; fill-rule: nonzero; stroke: none; transform-box: fill-box; transform-origin: 50% 50%;" id="path68" transform="matrix(0.915558, 0.402186, -0.402186, 0.915558, -0.000006, -0.000004)"/>
            <path d="M 5193 13116.408 C 5147.472 13052.854 5080.292 13023.053 5042.914 13049.623 C 5005.5 13076.193 5012.035 13149.8 5057.599 13213.354 C 5103.164 13276.907 5170.38 13306.709 5207.794 13280.139 C 5245.172 13253.209 5238.565 13179.961 5193 13116.408" style="fill: rgb(255, 255, 255); fill-opacity: 1; fill-rule: nonzero; stroke: none; transform-box: fill-box; transform-origin: 50% 50%;" id="path70" transform="matrix(0.915558, 0.402186, -0.402186, 0.915558, 0.000008, 0.000078)"/>
            <path d="M 6900.463 13574.74 C 6897.77 13513.699 6885.562 13453.378 6890.948 13392.338 C 6897.016 13322.68 6948.505 13270.257 7001.43 13230.761 C 7029.688 13209.577 7069.149 13218.194 7089.687 13245.123 C 7143.905 13316.935 7220.779 13367.562 7275.177 13439.374 C 7301.927 13474.562 7278.265 13540.27 7229.54 13539.193 C 7153.779 13537.397 7077.802 13535.243 7002.184 13529.139 C 6974.68 13526.985 6988.037 13528.062 6962.436 13526.267 C 6944.017 13524.83 6925.956 13514.059 6915.22 13498.978 C 6889.045 13462.354 6908.506 13425.371 6936.836 13399.16 C 6978.63 13360.381 7045.379 13337.402 7100.243 13326.63 C 7188.644 13309.395 7232.485 13385.874 7206.417 13462.354 C 7174.928 13436.502 7143.366 13410.65 7111.877 13385.156 L 7114.247 13383.361 C 7138.806 13417.472 7163.294 13451.941 7187.854 13486.052 C 7134.821 13523.035 7074.427 13574.021 7011.448 13591.256 C 6951.342 13607.414 6897.985 13555.35 6925.453 13495.387 C 6950.588 13440.092 7011.807 13409.931 7058.916 13376.18 C 7125.27 13328.784 7198.913 13431.475 7132.559 13479.23 C 7103.654 13499.696 7063.404 13519.444 7041.753 13546.733 C 7032.094 13558.941 7042.04 13541.706 7043.332 13537.397 C 7022.543 13514.777 7001.718 13492.156 6980.928 13469.176 C 6970.013 13472.049 6968.038 13472.408 6975.039 13470.253 C 6992.023 13464.149 6982.221 13467.74 6996.798 13459.482 C 7037.408 13436.502 7075.899 13409.931 7114.247 13383.361 C 7181.929 13336.324 7250.438 13435.066 7187.854 13486.052 L 7185.52 13487.847 C 7130.943 13526.985 7071.555 13467.381 7090.908 13410.65 C 7091.841 13407.777 7084.373 13393.774 7092.919 13424.294 C 7099.13 13439.374 7109.22 13448.351 7123.151 13451.223 C 7131.158 13450.864 7131.41 13451.223 7123.798 13451.223 C 7110.764 13451.582 7098.987 13456.25 7080.459 13463.431 C 7065.953 13468.817 7049.58 13476.716 7042.363 13480.666 C 7035.218 13484.616 7028.396 13488.924 7021.609 13493.592 C 7016.511 13497.183 7003.226 13511.186 7017.983 13495.387 C 7005.416 13463.79 6992.849 13432.552 6980.282 13401.314 C 6969.115 13401.314 6967.463 13400.955 6975.183 13400.237 C 6987.247 13398.442 7001.574 13402.032 7013.638 13403.468 C 7043.045 13406.341 7072.632 13407.777 7102.11 13409.213 C 7140.709 13411.009 7179.272 13412.086 7217.907 13413.163 C 7202.683 13446.555 7187.459 13479.589 7172.271 13512.981 C 7118.053 13441.529 7041.178 13390.542 6986.781 13319.09 C 7016.224 13323.757 7045.595 13328.784 7075.037 13333.452 C 7047.139 13354.277 7016.547 13378.693 7015.11 13416.395 C 7013.387 13465.227 7024.338 13514.418 7026.457 13563.25 C 7030.083 13644.397 6904.089 13656.605 6900.463 13574.74" style="fill: rgb(59, 57, 61); fill-opacity: 1; fill-rule: nonzero; stroke: none; transform-box: fill-box; transform-origin: 50% 50%;" id="path72" transform="matrix(0.915558, 0.402186, -0.402186, 0.915558, 0.000046, 0.000094)"/>
            <path d="M 7615.148 13165.387 C 7585.598 13126.25 7541.182 13100.038 7515.653 13057.669 C 7478.455 12995.911 7491.74 12923.381 7511.308 12858.033 C 7526.281 12808.123 7589.978 12782.63 7625.166 12831.821 C 7676.691 12903.633 7728.252 12975.804 7779.777 13047.616 C 7799.848 13075.622 7793.17 13115.837 7765.127 13135.944 C 7754.858 13143.485 7744.589 13150.666 7734.284 13158.206 C 7698.235 13183.699 7655.902 13164.669 7638.056 13128.404 C 7620.355 13092.139 7602.653 13056.233 7584.951 13019.968 C 7572.708 12995.193 7560.428 12970.059 7548.184 12945.284 C 7543.121 12934.871 7526.173 12910.814 7542.475 12933.435 C 7495.007 12867.368 7597.878 12793.761 7645.381 12859.828 C 7685.201 12915.482 7725.02 12971.136 7764.768 13026.79 C 7812.308 13093.216 7709.365 13166.823 7661.898 13100.397 C 7659.564 13097.166 7657.158 13093.934 7654.788 13090.344 C 7684.231 13095.371 7713.674 13100.397 7743.045 13105.065 C 7722.507 13119.787 7701.933 13134.508 7681.323 13149.229 C 7658.307 13165.746 7626.782 13164.669 7604.664 13147.075 C 7559.207 13110.81 7529.441 13061.619 7531.057 13002.374 C 7532.385 12953.901 7554.683 12913.328 7564.234 12867.009 C 7580.679 12786.939 7705.595 12807.405 7689.079 12887.475 C 7677.768 12942.411 7629.582 13005.247 7684.339 13048.693 C 7658.81 13047.975 7633.245 13047.257 7607.716 13046.539 C 7628.29 13031.817 7648.828 13017.096 7669.402 13002.374 C 7697.445 12982.267 7737.623 12988.73 7757.695 13016.737 C 7760.065 13020.327 7762.434 13023.559 7764.768 13026.79 C 7812.308 13093.216 7709.365 13166.823 7661.898 13100.397 C 7622.114 13044.743 7582.294 12989.089 7542.475 12933.435 C 7495.007 12867.368 7597.878 12793.761 7645.381 12859.828 C 7665.991 12888.912 7679.097 12926.254 7694.572 12957.851 C 7715.326 13000.22 7736.115 13042.589 7756.905 13084.599 C 7724.805 13074.904 7692.741 13065.21 7660.641 13055.156 C 7670.946 13047.975 7681.215 13040.435 7691.484 13032.894 C 7686.673 13062.337 7681.754 13091.78 7676.871 13121.223 C 7625.346 13049.411 7573.821 12977.24 7522.26 12905.428 C 7560.212 12896.452 7598.165 12887.475 7636.081 12878.858 C 7624.053 12919.073 7603.515 12968.982 7633.209 13004.888 C 7658.846 13036.126 7693.244 13059.106 7718.091 13091.78 C 7767.174 13157.129 7664.16 13230.736 7615.148 13165.387" style="fill: rgb(59, 57, 61); fill-opacity: 1; fill-rule: nonzero; stroke: none; transform-box: fill-box; transform-origin: 50% 50%;" id="path74" transform="matrix(0.915558, 0.402186, -0.402186, 0.915558, 0.000299, -0.000109)"/>
            <path d="M 7007.028 12720.395 C 6989.039 12666.536 6956.652 12618.063 6943.726 12562.768 C 6927.676 12494.187 6946.886 12429.916 6977.513 12368.158 C 6994.246 12334.765 7044.55 12315.017 7075.07 12344.819 C 7127.061 12395.805 7200.704 12435.302 7243.181 12494.546 C 7290.792 12560.972 7254.097 12657.2 7234.743 12726.499 C 7223.433 12767.072 7169.825 12802.619 7132.483 12765.277 C 7078.014 12711.059 7023.581 12656.482 6969.111 12602.264 C 6935.539 12568.513 6938.771 12512.499 6987.1 12493.469 C 7050.187 12469.053 7210.004 12424.889 7208.747 12542.66 C 7208.317 12578.207 7188.425 12606.214 7151.549 12611.6 C 7061.892 12623.808 7014.64 12578.566 7005.34 12493.828 C 7000.96 12453.614 7025.053 12409.809 7067.673 12405.141 C 7119.162 12399.396 7161.1 12444.996 7202.428 12468.694 C 7272.588 12508.909 7221.35 12624.885 7150.723 12583.952 C 7131.945 12573.18 7113.812 12562.409 7095.608 12550.56 C 7079.163 12539.788 7051.839 12534.043 7079.307 12531.17 C 7093.777 12523.271 7108.211 12515.731 7122.645 12507.832 C 7126.343 12506.395 7129.97 12504.6 7133.668 12502.805 C 7111.442 12489.161 7107.529 12483.775 7121.999 12487.006 C 7127.923 12487.006 7133.991 12486.288 7139.916 12485.57 C 7120.814 12508.55 7101.748 12531.17 7082.718 12554.15 C 7082.143 12601.187 7148.031 12584.311 7098.085 12591.492 C 7087.888 12592.929 7077.978 12596.519 7068.14 12599.392 C 7055.537 12602.982 7043.006 12607.65 7030.726 12612.318 C 7036.722 12576.053 7042.719 12540.147 7048.751 12503.882 C 7103.184 12558.1 7157.653 12612.677 7212.123 12666.895 C 7178.048 12679.821 7144.009 12692.747 7109.934 12705.673 C 7120.275 12668.69 7130.724 12631.348 7137.438 12593.288 C 7140.742 12574.617 7139.018 12566.358 7136.253 12562.409 C 7109.073 12524.707 7034.64 12481.62 6995.43 12443.201 C 7027.925 12435.661 7060.492 12427.761 7093.023 12419.862 C 7069.827 12466.54 7055.106 12506.036 7073.741 12555.946 C 7089.037 12597.237 7111.801 12634.938 7125.805 12676.589 C 7151.585 12753.787 7032.916 12797.951 7007.028 12720.395" style="fill: rgb(59, 57, 61); fill-opacity: 1; fill-rule: nonzero; stroke: none; transform-box: fill-box; transform-origin: 50% 50%;" id="path76" transform="matrix(0.915558, 0.402186, -0.402186, 0.915558, -0.000069, 0.000277)"/>
            <path d="M 8195.865 12903.292 C 8128.685 12877.439 8060.033 12848.356 8011.488 12793.42 C 7957.881 12732.38 7946.93 12660.927 7924.596 12585.884 C 7911.06 12540.642 7891.67 12466.676 7931.885 12427.898 C 8022.619 12341.005 8144.233 12482.834 8202.256 12545.31 C 8266.384 12613.89 8361.571 12713.349 8373.025 12811.732 C 8379.883 12870.258 8323.69 12910.832 8269.365 12895.392 C 8197.589 12874.567 8134.717 12822.503 8076.586 12777.621 C 8056.945 12762.541 8037.7 12747.101 8018.49 12731.661 C 7976.48 12697.551 7996.085 12622.508 8052.493 12619.276 C 8101.397 12616.763 8129.08 12583.37 8183.801 12589.115 C 8243.512 12595.219 8378.698 12630.766 8364.264 12709.759 C 8349.65 12790.188 8261.932 12758.232 8212.777 12740.638 C 8183.19 12730.225 8154.071 12718.735 8124.7 12707.605 C 8111.307 12702.578 8097.878 12697.91 8084.341 12693.242 C 8061.541 12685.343 8063.516 12697.192 8087.968 12684.984 C 8101.504 12668.826 8115.041 12652.309 8128.578 12636.152 C 8127.859 12626.457 8127.177 12617.122 8126.459 12607.786 C 8087.358 12606.35 8048.328 12604.914 8009.334 12603.836 C 8022.835 12561.108 8038.131 12518.74 8058.202 12478.884 C 8071.02 12453.391 8087.106 12431.129 8113.174 12418.562 C 8125.059 12412.817 8136.585 12412.458 8149.547 12413.535 C 8159.887 12414.612 8216.511 12426.82 8160.642 12417.485 C 8185.847 12421.794 8218.45 12422.153 8239.132 12439.028 C 8266.636 12461.29 8279.634 12502.941 8283.117 12536.692 C 8289.472 12598.81 8222.795 12639.383 8227.211 12694.319 C 8233.746 12775.467 8107.716 12787.316 8101.181 12705.809 C 8098.165 12668.467 8106.029 12635.434 8124.377 12602.759 C 8138.954 12576.548 8166.351 12554.286 8147.895 12524.844 C 8161.611 12533.461 8175.291 12542.078 8188.971 12550.696 C 8171.306 12547.464 8153.676 12544.592 8136.01 12541.719 C 8058.489 12529.152 8179.779 12521.971 8175.04 12527.716 C 8170.157 12534.179 8166.889 12544.233 8163.622 12551.414 C 8148.11 12584.806 8136.01 12620.353 8124.843 12655.182 C 8105.705 12715.145 8029.37 12693.601 8007.682 12651.232 C 7989.658 12616.044 8015.402 12580.498 8045.994 12565.417 C 8072.564 12552.132 8110.984 12569.367 8136.046 12577.625 C 8168.469 12588.397 8200.318 12601.323 8232.31 12613.172 C 8249.365 12619.635 8266.492 12625.739 8283.691 12631.843 C 8306.527 12639.742 8304.481 12627.893 8280.1 12640.101 C 8266.528 12656.259 8253.027 12672.776 8239.491 12688.933 C 8240.173 12698.269 8240.891 12707.964 8241.573 12717.299 C 8252.776 12729.148 8263.943 12741.356 8275.11 12753.205 C 8245.415 12740.638 8215.685 12728.071 8185.058 12717.658 C 8167.643 12711.554 8172.455 12716.222 8181.144 12711.195 C 8143.658 12733.098 8107.824 12743.151 8064.126 12745.306 C 8075.473 12707.964 8086.819 12670.621 8098.093 12633.279 C 8151.198 12676.366 8210.084 12724.839 8266.528 12757.155 C 8278.772 12764.336 8307.138 12774.749 8297.12 12772.235 C 8281.573 12768.645 8245.056 12805.987 8246.708 12820.708 C 8245.667 12811.732 8251.627 12836.866 8246.026 12820.349 C 8243.692 12813.886 8240.604 12807.423 8237.552 12800.96 C 8236.188 12798.087 8238.988 12803.114 8230.514 12788.752 C 8225.452 12780.134 8219.994 12771.517 8214.536 12763.259 C 8188.792 12724.121 8159.313 12687.497 8128.829 12651.591 C 8101.253 12619.635 8077.088 12594.501 8042.619 12563.981 C 8028.759 12551.773 8014.145 12540.283 7998.67 12530.229 C 8012.889 12539.565 7993.895 12528.075 7990.017 12526.639 C 7974.146 12519.458 8001.686 12527.716 7986.749 12525.921 C 8004.846 12528.075 8015.905 12521.612 8028.544 12509.404 C 8025.958 12511.558 8037.018 12481.397 8034.612 12498.991 C 8036.479 12485.347 8039.423 12528.075 8041.147 12534.538 C 8055.33 12588.038 8063.049 12645.487 8092.851 12692.883 C 8125.669 12745.306 8193.1 12766.849 8247.498 12787.675 C 8323.942 12817.118 8271.627 12932.375 8195.865 12903.292" style="fill: rgb(59, 57, 61); fill-opacity: 1; fill-rule: nonzero; stroke: none; transform-box: fill-box; transform-origin: 50% 50%;" id="path78" transform="matrix(0.915558, 0.402186, -0.402186, 0.915558, -0.000131, -0.00027)"/>
          </g>
        </g>
      </g>
    </g>
  </g>
  <path d="M 1189.47 843.295 Q 1188.67 843.295 1186.67 843.695 Q 1184.67 844.095 1182.67 844.295 Q 1180.67 844.495 1179.27 844.695 Q 1177.87 844.895 1178.27 844.895 L 1158.67 844.895 Q 1152.27 844.095 1148.07 843.895 Q 1143.87 843.695 1140.67 844.095 Q 1139.87 844.095 1139.07 843.495 Q 1138.27 842.895 1137.87 842.495 Q 1137.47 838.895 1137.67 831.695 Q 1137.87 824.495 1137.87 820.495 L 1137.87 814.895 Q 1138.67 808.095 1138.27 802.695 Q 1137.87 797.295 1137.87 790.495 L 1137.87 781.695 Q 1139.87 772.895 1138.87 763.295 Q 1137.87 753.695 1137.87 745.695 L 1137.87 643.695 Q 1137.87 639.695 1135.87 639.695 Q 1130.27 639.295 1127.07 639.295 Q 1123.87 639.295 1118.27 639.695 Q 1115.87 639.695 1110.07 638.495 Q 1104.27 637.295 1102.27 637.695 Q 1100.27 638.495 1094.07 637.695 Q 1087.87 636.895 1085.87 636.895 Q 1083.87 636.895 1082.27 636.695 Q 1080.67 636.495 1079.07 635.295 L 1079.07 610.495 Q 1080.67 609.695 1083.87 609.695 Q 1087.07 609.695 1090.27 609.695 Q 1094.27 609.695 1097.47 609.695 Q 1100.67 609.695 1103.47 609.295 Q 1104.27 609.295 1109.07 609.695 Q 1113.87 610.095 1117.07 610.495 Q 1119.47 609.695 1121.87 609.695 Q 1127.87 609.295 1133.07 609.695 Q 1136.67 610.095 1138.27 609.695 Q 1139.87 609.295 1143.07 609.295 L 1149.47 609.295 L 1160.27 610.095 Q 1164.27 610.095 1168.27 609.895 Q 1172.27 609.695 1176.27 610.095 Q 1185.47 610.895 1194.07 610.695 Q 1202.67 610.495 1208.27 609.695 Q 1211.07 609.695 1218.27 610.495 Q 1225.47 611.295 1232.27 611.695 Q 1236.67 612.095 1239.47 611.695 Q 1242.27 611.295 1244.27 611.695 L 1244.27 630.095 Q 1244.27 631.695 1244.67 632.095 Q 1245.07 632.495 1244.27 635.695 Q 1243.87 637.295 1241.07 637.495 Q 1238.27 637.695 1236.67 637.695 Q 1226.27 639.295 1217.67 638.895 Q 1209.07 638.495 1201.07 638.495 Q 1197.87 638.495 1196.07 638.495 Q 1194.27 638.495 1191.87 638.895 L 1191.87 648.095 Q 1191.87 651.295 1191.67 657.695 Q 1191.47 664.095 1191.47 667.695 Q 1191.47 669.295 1191.47 670.095 Q 1191.47 670.895 1191.27 672.295 Q 1191.07 673.695 1190.67 676.295 Q 1190.27 678.895 1189.07 683.695 Q 1189.07 690.495 1189.07 695.295 Q 1189.07 700.095 1189.27 704.095 Q 1189.47 708.095 1189.47 711.895 Q 1189.47 715.695 1189.47 720.895 L 1189.47 724.895 Q 1187.87 731.695 1188.67 738.495 Q 1189.47 745.295 1189.47 752.095 Z M 1434.264 614.895 Q 1432.664 620.095 1433.464 626.095 Q 1434.264 632.095 1434.264 637.695 Q 1432.664 637.695 1428.464 638.695 Q 1424.264 639.695 1420.664 640.095 Q 1419.064 640.095 1417.064 639.895 Q 1415.064 639.695 1413.864 640.095 L 1406.264 641.695 L 1383.864 641.695 Q 1375.464 642.095 1368.864 641.895 Q 1362.264 641.695 1353.864 641.695 Q 1352.264 641.695 1349.264 642.095 Q 1346.264 642.495 1345.064 642.095 Q 1345.064 644.095 1344.664 645.295 Q 1344.264 646.495 1344.264 648.495 Q 1344.664 649.695 1344.864 654.495 Q 1345.064 659.295 1345.264 665.095 Q 1345.464 670.895 1345.664 675.695 Q 1345.864 680.495 1345.864 681.695 L 1345.864 699.695 Q 1345.864 702.895 1346.064 704.895 Q 1346.264 706.895 1347.064 710.495 L 1370.264 710.495 Q 1376.664 710.495 1382.264 710.895 Q 1387.864 711.295 1394.664 711.295 Q 1398.264 711.295 1403.264 711.695 Q 1408.264 712.095 1411.064 711.295 Q 1411.464 714.895 1411.864 718.895 Q 1412.264 722.895 1412.264 726.095 L 1412.264 732.495 Q 1410.664 732.495 1406.264 732.895 Q 1401.864 733.295 1398.264 733.695 L 1381.464 733.695 Q 1373.464 734.895 1366.664 734.895 Q 1359.864 734.895 1351.464 734.895 Q 1349.864 734.895 1347.464 735.295 Q 1345.064 735.695 1343.864 735.295 L 1343.864 750.095 Q 1343.864 755.695 1344.064 761.695 Q 1344.264 767.695 1345.464 772.095 Q 1345.464 779.295 1345.664 785.495 Q 1345.864 791.695 1345.864 796.895 L 1345.864 803.695 Q 1346.664 803.295 1350.864 804.095 Q 1355.064 804.895 1361.064 805.695 Q 1367.064 806.495 1371.264 806.895 Q 1375.464 807.295 1379.064 808.495 Q 1381.064 809.295 1387.664 809.495 Q 1394.264 809.695 1396.264 809.695 Q 1406.264 810.895 1415.864 811.295 Q 1425.464 811.695 1435.464 812.495 L 1449.864 812.495 Q 1451.464 812.495 1453.464 811.895 Q 1455.464 811.295 1456.264 811.295 Q 1458.264 818.495 1458.464 825.295 Q 1458.664 832.095 1458.664 838.895 Q 1455.464 840.895 1450.664 840.895 Q 1445.864 840.895 1441.464 841.295 Q 1438.664 841.295 1435.464 840.895 Q 1432.264 840.495 1429.064 840.495 Q 1421.064 840.895 1410.064 840.495 Q 1399.064 840.095 1391.064 840.895 L 1385.064 840.895 Q 1380.664 840.095 1372.864 839.695 Q 1365.064 839.295 1361.064 839.295 Q 1356.664 838.895 1347.064 839.495 Q 1337.464 840.095 1315.064 840.495 Q 1314.264 840.495 1309.664 840.495 Q 1305.064 840.495 1299.664 840.695 Q 1294.264 840.895 1289.664 841.095 Q 1285.064 841.295 1284.264 841.295 Q 1284.264 832.895 1283.264 824.895 Q 1282.264 816.895 1282.264 810.095 Q 1282.264 806.095 1281.864 800.895 Q 1281.464 795.695 1282.264 792.095 Q 1283.064 779.295 1282.864 766.895 Q 1282.664 754.495 1282.664 741.695 Q 1282.664 738.895 1282.264 731.695 Q 1281.864 724.495 1282.264 718.095 L 1281.464 705.695 Q 1281.064 702.895 1282.064 695.495 Q 1283.064 688.095 1282.664 682.495 Q 1282.264 673.295 1281.864 666.295 Q 1281.464 659.295 1281.064 649.695 Q 1280.664 641.295 1281.264 633.095 Q 1281.864 624.895 1281.864 617.295 Q 1281.864 615.295 1282.064 613.895 Q 1282.264 612.495 1284.264 610.895 L 1304.664 611.695 Q 1310.664 612.095 1318.464 611.695 Q 1326.264 611.295 1332.264 611.695 Q 1333.864 611.695 1335.264 611.495 Q 1336.664 611.295 1338.264 611.295 Q 1339.464 611.295 1343.464 611.295 Q 1347.464 611.295 1351.864 611.295 Q 1356.264 611.295 1359.864 611.295 Q 1363.464 611.295 1364.264 611.695 Q 1365.064 612.095 1369.064 612.495 Q 1373.064 612.895 1375.064 612.895 Q 1376.264 612.895 1378.664 612.695 Q 1381.064 612.495 1383.664 612.495 Q 1386.264 612.495 1388.664 612.495 Q 1391.064 612.495 1392.264 612.495 Q 1396.664 613.295 1400.464 613.095 Q 1404.264 612.895 1408.664 613.295 Q 1409.064 613.295 1412.864 613.495 Q 1416.664 613.695 1421.464 614.095 Q 1426.264 614.495 1430.064 614.695 Q 1433.864 614.895 1434.264 614.895 Z M 1487.064 735.695 Q 1486.664 731.695 1487.264 728.095 Q 1487.864 724.495 1487.864 720.895 Q 1487.864 714.495 1487.664 708.695 Q 1487.464 702.895 1487.464 696.495 L 1487.464 677.695 Q 1487.464 675.695 1487.264 673.495 Q 1487.064 671.295 1486.664 669.295 L 1486.664 632.095 Q 1487.064 627.295 1486.864 620.295 Q 1486.664 613.295 1486.664 611.295 Q 1486.664 610.095 1486.264 608.895 Q 1485.864 607.695 1486.264 606.895 Q 1488.264 606.895 1490.464 606.495 Q 1492.664 606.095 1496.264 606.095 Q 1499.464 605.695 1502.664 605.295 Q 1505.864 604.895 1509.864 604.895 L 1527.864 604.895 Q 1531.064 604.895 1533.464 605.095 Q 1535.864 605.295 1539.864 606.095 Q 1540.264 606.495 1540.664 606.495 Q 1541.064 606.895 1543.064 606.895 Q 1545.464 606.095 1550.064 606.495 Q 1554.664 606.895 1559.464 607.295 Q 1562.664 607.695 1565.464 608.895 Q 1568.264 610.095 1570.264 610.095 Q 1571.064 610.095 1574.264 611.495 Q 1577.464 612.895 1581.064 614.695 Q 1584.664 616.495 1587.664 617.895 Q 1590.664 619.295 1591.864 619.695 Q 1597.064 621.695 1601.664 624.695 Q 1606.264 627.695 1608.664 631.295 Q 1612.264 633.695 1613.864 637.495 Q 1615.464 641.295 1617.864 644.495 Q 1619.064 646.095 1619.464 648.495 Q 1619.864 650.895 1621.464 652.895 Q 1623.464 655.695 1624.464 661.095 Q 1625.464 666.495 1625.664 672.495 Q 1625.864 678.495 1625.464 684.695 Q 1625.064 690.895 1624.664 695.695 Q 1623.864 699.695 1623.064 703.095 Q 1622.264 706.495 1621.464 710.895 Q 1621.064 712.895 1619.664 715.295 Q 1618.264 717.695 1617.464 719.695 Q 1614.264 727.295 1607.064 734.495 L 1603.464 738.495 Q 1601.864 739.295 1600.664 740.495 Q 1599.464 741.695 1597.864 742.895 Q 1595.864 744.895 1593.264 746.095 Q 1590.664 747.295 1588.664 749.295 Q 1583.064 749.295 1579.264 751.295 Q 1575.464 753.295 1570.664 751.695 Q 1566.664 751.695 1563.464 752.695 Q 1560.264 753.695 1557.064 753.695 L 1554.664 753.695 Q 1554.664 755.695 1559.064 760.495 Q 1563.464 765.295 1565.464 769.295 Q 1568.664 772.495 1571.264 775.095 Q 1573.864 777.695 1577.064 781.295 Q 1582.264 786.095 1584.664 789.095 Q 1587.064 792.095 1592.264 796.895 Q 1594.664 798.895 1598.064 804.695 Q 1601.464 810.495 1603.864 812.495 Q 1606.264 816.095 1606.864 817.295 Q 1607.464 818.495 1609.064 820.095 Q 1612.264 824.495 1614.264 827.895 Q 1616.264 831.295 1618.664 834.495 Q 1616.664 838.095 1613.064 841.895 Q 1609.464 845.695 1603.864 848.895 Q 1603.064 847.695 1601.464 846.695 Q 1599.864 845.695 1599.064 844.095 Q 1598.264 843.295 1593.664 839.295 Q 1589.064 835.295 1585.864 831.695 Q 1583.864 828.895 1579.264 824.295 Q 1574.664 819.695 1569.064 814.895 Q 1563.464 810.095 1559.064 805.095 Q 1554.664 800.095 1552.264 797.295 Q 1551.064 796.095 1548.264 793.495 Q 1545.464 790.895 1542.264 788.295 Q 1539.064 785.695 1536.264 783.095 Q 1533.464 780.495 1532.264 779.295 Q 1531.464 780.095 1531.264 780.695 Q 1531.064 781.295 1530.664 782.095 Q 1530.264 782.895 1530.264 783.695 Q 1530.264 791.695 1529.664 798.695 Q 1529.064 805.695 1529.064 812.495 Q 1529.064 816.095 1528.864 819.895 Q 1528.664 823.695 1528.664 828.495 L 1528.664 842.495 Q 1527.864 842.495 1525.864 842.695 Q 1523.864 842.895 1521.464 843.295 Q 1517.064 844.095 1512.864 843.895 Q 1508.664 843.695 1504.664 843.695 Q 1499.464 843.695 1496.064 843.695 Q 1492.664 843.695 1489.464 842.095 Q 1487.464 842.095 1487.064 842.095 Q 1486.664 842.095 1484.664 840.095 L 1485.064 808.495 L 1485.864 803.295 L 1485.064 790.495 L 1485.864 749.695 Q 1486.664 744.495 1486.464 742.095 Q 1486.264 739.695 1487.064 735.695 Z M 1556.664 688.895 Q 1557.464 684.095 1557.464 679.095 Q 1557.464 674.095 1557.064 670.095 Q 1557.064 667.695 1555.464 666.895 Q 1554.264 664.895 1553.264 664.095 Q 1552.264 663.295 1551.064 662.495 Q 1548.264 660.095 1545.064 658.695 Q 1541.864 657.295 1538.664 656.495 Q 1537.464 656.495 1536.664 658.095 Q 1536.264 658.895 1536.264 659.295 L 1536.264 700.095 L 1543.064 700.095 Q 1545.064 698.095 1547.064 697.895 Q 1549.064 697.695 1550.664 695.695 Q 1553.064 693.695 1554.464 692.695 Q 1555.864 691.695 1556.664 688.895 Z M 1769.067 749.295 Q 1767.067 746.495 1764.867 743.295 Q 1762.667 740.095 1759.867 736.095 Q 1754.267 728.495 1750.067 721.495 Q 1745.867 714.495 1743.867 712.495 L 1732.667 699.695 Q 1731.467 698.095 1729.867 695.295 Q 1728.267 692.495 1727.467 691.295 Q 1725.467 688.495 1723.667 685.495 Q 1721.867 682.495 1719.867 680.095 Q 1717.467 676.895 1714.067 672.095 Q 1710.667 667.295 1710.267 667.295 L 1710.667 685.295 L 1707.867 717.695 Q 1707.867 719.695 1707.667 726.295 Q 1707.467 732.895 1707.067 740.495 Q 1706.667 748.095 1706.467 754.695 Q 1706.267 761.295 1706.267 763.295 Q 1705.867 771.695 1705.067 778.095 Q 1704.267 784.495 1704.667 792.895 Q 1704.667 796.895 1704.067 800.295 Q 1703.467 803.695 1703.867 807.695 Q 1703.867 809.695 1703.867 811.495 Q 1703.867 813.295 1703.467 815.295 Q 1703.867 820.895 1703.467 826.695 Q 1703.067 832.495 1703.067 838.095 Q 1698.267 840.095 1694.467 840.495 Q 1690.667 840.895 1685.067 840.895 Q 1683.467 841.295 1680.867 841.495 Q 1678.267 841.695 1675.867 841.895 Q 1673.467 842.095 1671.867 842.295 Q 1670.267 842.495 1670.667 842.495 Q 1668.667 842.495 1666.067 842.895 Q 1663.467 843.295 1660.267 843.295 Q 1658.667 843.295 1657.067 843.095 Q 1655.467 842.895 1653.867 840.895 L 1655.467 828.495 L 1655.467 826.095 Q 1655.067 820.095 1654.667 814.295 Q 1654.267 808.495 1655.067 804.095 Q 1655.467 801.695 1655.667 797.695 Q 1655.867 793.695 1655.867 789.295 Q 1655.867 784.895 1655.867 780.695 Q 1655.867 776.495 1655.467 773.295 Q 1654.667 766.895 1654.467 762.295 Q 1654.267 757.695 1654.267 747.295 Q 1654.667 738.895 1654.667 734.095 Q 1654.667 729.295 1654.267 720.895 L 1654.267 717.295 Q 1654.267 711.695 1653.667 707.295 Q 1653.067 702.895 1653.467 699.695 Q 1655.067 691.295 1654.467 683.095 Q 1653.867 674.895 1654.667 665.695 Q 1655.067 658.895 1654.867 652.495 Q 1654.667 646.095 1654.667 639.295 Q 1654.667 632.495 1655.267 625.695 Q 1655.867 618.895 1655.867 612.095 Q 1655.867 608.895 1656.467 608.295 Q 1657.067 607.695 1660.267 607.695 L 1701.467 607.695 Q 1703.467 609.695 1706.267 614.295 Q 1709.067 618.895 1711.067 621.695 Q 1714.267 625.695 1717.267 630.895 Q 1720.267 636.095 1722.667 640.095 Q 1725.867 646.895 1729.467 650.495 Q 1733.067 654.095 1735.467 660.095 Q 1737.467 662.095 1738.867 664.695 Q 1740.267 667.295 1741.867 668.895 Q 1743.867 672.095 1747.067 676.895 Q 1750.267 681.695 1753.467 684.895 Q 1758.667 691.695 1762.467 697.295 Q 1766.267 702.895 1771.867 709.295 Q 1775.067 713.695 1777.467 717.295 Q 1779.867 720.895 1782.667 725.295 Q 1785.867 728.895 1789.667 733.495 Q 1793.467 738.095 1798.267 743.695 Q 1799.067 743.295 1801.267 740.695 Q 1803.467 738.095 1804.667 736.095 Q 1808.267 732.495 1812.067 726.895 Q 1815.867 721.295 1819.467 716.895 L 1823.467 708.895 Q 1824.267 707.295 1825.467 705.895 Q 1826.667 704.495 1827.467 703.295 L 1838.267 686.895 Q 1839.867 682.895 1844.867 676.895 Q 1849.867 670.895 1854.667 662.495 L 1856.667 660.095 Q 1860.667 653.295 1863.867 647.095 Q 1867.067 640.895 1870.267 634.095 Q 1872.667 628.895 1875.267 625.895 Q 1877.867 622.895 1880.667 617.695 Q 1882.267 614.495 1882.467 613.495 Q 1882.667 612.495 1883.867 610.095 L 1920.267 610.095 Q 1927.067 611.695 1929.867 611.695 Q 1932.667 611.695 1933.867 611.695 Q 1935.867 611.695 1937.667 611.895 Q 1939.467 612.095 1942.667 612.095 L 1942.667 628.495 Q 1941.067 635.295 1940.867 640.495 Q 1940.667 645.695 1940.667 650.895 L 1940.667 691.295 Q 1940.667 698.495 1941.067 705.095 Q 1941.467 711.695 1941.467 719.295 Q 1941.867 721.295 1941.867 723.495 Q 1941.867 725.695 1941.867 728.095 Q 1942.267 732.495 1942.067 734.495 Q 1941.867 736.495 1942.267 740.895 L 1942.267 746.095 Q 1941.867 748.495 1941.467 754.295 Q 1941.067 760.095 1940.667 766.295 Q 1940.267 772.495 1940.067 778.295 Q 1939.867 784.095 1939.867 786.495 Q 1939.867 789.695 1940.267 794.495 Q 1940.667 799.295 1940.667 802.495 Q 1940.667 810.495 1940.467 819.095 Q 1940.267 827.695 1938.267 836.095 L 1938.267 845.295 Q 1936.667 847.295 1934.067 847.495 Q 1931.467 847.695 1929.467 847.695 Q 1925.867 846.895 1922.067 847.295 Q 1918.267 847.695 1916.667 847.695 L 1885.867 847.695 Q 1885.067 842.095 1884.667 836.495 Q 1884.267 830.895 1884.267 825.695 Q 1884.267 823.295 1884.467 818.895 Q 1884.667 814.495 1884.667 809.495 Q 1884.667 804.495 1884.667 800.095 Q 1884.667 795.695 1884.267 793.295 Q 1884.267 790.495 1884.667 784.695 Q 1885.067 778.895 1885.067 776.095 L 1884.667 762.495 Q 1884.667 758.495 1884.467 755.895 Q 1884.267 753.295 1884.267 751.295 L 1883.467 743.695 Q 1883.467 742.895 1883.667 741.495 Q 1883.867 740.095 1883.867 739.295 Q 1882.267 730.095 1883.667 721.295 Q 1885.067 712.495 1884.267 704.095 Q 1884.667 701.295 1884.667 698.895 Q 1884.667 696.495 1884.667 694.095 L 1883.867 673.295 L 1883.867 668.895 Q 1882.267 668.095 1882.267 668.095 Q 1881.867 668.495 1881.867 668.895 Q 1876.667 673.695 1872.667 679.095 Q 1868.667 684.495 1864.667 691.295 L 1852.267 710.895 Q 1850.267 714.495 1847.467 719.095 Q 1844.667 723.695 1841.867 728.495 Q 1839.067 733.295 1836.467 737.495 Q 1833.867 741.695 1831.467 744.495 Q 1830.267 746.095 1828.067 749.295 Q 1825.867 752.495 1823.267 756.295 Q 1820.667 760.095 1818.067 764.095 Q 1815.467 768.095 1813.067 771.295 L 1811.467 773.695 Q 1809.467 774.495 1806.067 774.295 Q 1802.667 774.095 1800.667 774.095 Q 1797.067 774.095 1793.467 774.295 Q 1789.867 774.495 1786.267 774.495 Q 1783.067 771.295 1779.867 765.695 Q 1776.667 760.095 1774.267 756.895 Z M 2017.464 800.895 Q 2017.464 801.695 2017.464 803.895 Q 2017.464 806.095 2017.464 808.695 Q 2017.464 811.295 2017.464 813.695 Q 2017.464 816.095 2017.464 817.295 Q 2017.464 828.095 2017.664 832.095 Q 2017.864 836.095 2017.864 841.695 Q 2017.864 842.895 2016.464 843.895 Q 2015.064 844.895 2013.464 845.295 L 1987.864 845.295 L 1987.864 840.895 L 1985.864 812.495 Q 1985.864 804.895 1985.664 797.695 Q 1985.464 790.495 1985.064 783.295 L 1985.064 772.495 Q 1985.064 766.895 1984.664 761.495 Q 1984.264 756.095 1985.064 750.495 L 1985.064 736.895 Q 1985.064 729.695 1984.864 722.695 Q 1984.664 715.695 1984.264 708.895 Q 1984.264 706.895 1984.464 705.495 Q 1984.664 704.095 1984.664 702.095 Q 1984.664 693.695 1984.464 686.895 Q 1984.264 680.095 1984.264 673.495 Q 1984.264 666.895 1984.264 659.695 Q 1984.264 652.495 1983.864 643.695 L 1983.864 632.495 Q 1983.464 628.095 1983.264 623.495 Q 1983.064 618.895 1983.064 614.495 L 1983.064 613.295 Q 1983.064 611.695 1983.464 610.495 Q 1983.864 610.095 1987.864 609.295 Q 1989.864 608.895 1993.064 609.295 Q 1995.864 610.095 1999.864 609.895 Q 2003.864 609.695 2008.664 609.695 Q 2012.664 609.695 2015.264 610.495 Q 2017.864 611.295 2017.864 612.095 L 2017.864 674.495 Q 2017.464 677.695 2017.664 680.695 Q 2017.864 683.695 2017.464 686.895 Q 2017.064 691.295 2017.264 695.695 Q 2017.464 700.095 2017.464 704.495 L 2017.464 711.295 Q 2017.464 712.495 2017.464 713.895 Q 2017.464 715.295 2017.064 716.895 Q 2016.664 717.695 2016.664 719.895 Q 2016.664 722.095 2016.864 724.495 Q 2017.064 726.895 2017.264 729.295 Q 2017.464 731.695 2017.464 732.495 Q 2017.864 743.295 2017.264 745.295 Q 2016.664 747.295 2016.664 748.495 Q 2016.264 754.095 2016.864 759.695 Q 2017.464 765.295 2017.464 770.895 Q 2017.864 778.495 2017.664 785.895 Q 2017.464 793.295 2017.464 800.895 Z M 2132.267 689.695 Q 2140.267 703.295 2149.267 718.495 Q 2158.267 733.695 2168.667 750.495 Q 2170.667 756.095 2173.667 760.695 Q 2176.667 765.295 2179.867 768.495 Q 2181.467 771.695 2183.867 776.295 Q 2186.267 780.895 2188.667 784.095 L 2189.467 782.495 L 2189.467 762.095 Q 2189.467 761.295 2189.667 761.095 Q 2189.867 760.895 2189.867 760.095 Q 2188.267 750.895 2189.267 743.495 Q 2190.267 736.095 2189.467 727.695 Q 2189.867 724.895 2189.867 722.495 Q 2189.867 720.095 2189.867 717.695 L 2189.067 696.895 L 2189.067 647.295 Q 2189.067 645.695 2189.267 641.295 Q 2189.467 636.895 2189.467 631.495 Q 2189.467 626.095 2189.467 620.895 Q 2189.467 615.695 2189.467 612.895 Q 2189.467 611.295 2190.067 609.895 Q 2190.667 608.495 2193.867 608.495 L 2207.067 608.495 Q 2210.667 608.495 2215.467 609.695 Q 2220.267 610.895 2221.867 610.895 L 2223.867 610.895 Q 2223.867 624.495 2224.067 638.695 Q 2224.267 652.895 2224.467 665.495 Q 2224.667 678.095 2225.067 688.695 Q 2225.467 699.295 2225.867 705.695 Q 2225.467 708.895 2225.667 711.895 Q 2225.867 714.895 2225.467 718.095 Q 2225.067 722.495 2225.267 726.895 Q 2225.467 731.295 2225.467 735.695 L 2225.467 754.895 Q 2225.867 765.695 2225.267 772.095 Q 2224.667 778.495 2224.667 779.695 Q 2224.267 785.295 2224.267 790.895 Q 2224.267 796.495 2224.267 802.095 Q 2224.667 809.695 2224.267 817.095 Q 2223.867 824.495 2224.267 832.095 Q 2224.267 835.295 2224.267 838.095 Q 2224.267 840.895 2224.667 844.095 Q 2224.667 846.095 2220.267 846.095 L 2207.067 846.095 Q 2202.267 846.895 2199.467 846.495 Q 2196.667 846.095 2195.467 846.095 Q 2193.467 840.895 2191.867 837.495 Q 2190.267 834.095 2188.467 830.895 Q 2186.667 827.695 2184.667 824.295 Q 2182.667 820.895 2179.867 816.095 Q 2178.667 814.095 2176.667 810.695 Q 2174.667 807.295 2173.067 805.295 Q 2170.667 802.495 2169.067 798.695 Q 2167.467 794.895 2163.867 791.695 Q 2158.667 783.695 2153.867 775.095 Q 2149.067 766.495 2143.467 757.695 Q 2137.867 749.295 2130.667 740.295 Q 2123.467 731.295 2116.267 720.095 Q 2113.067 712.495 2106.867 704.495 Q 2100.667 696.495 2096.267 689.295 Q 2096.267 688.495 2096.067 692.495 Q 2095.867 696.495 2095.867 701.495 Q 2095.867 706.495 2095.667 710.695 Q 2095.467 714.895 2095.467 714.895 L 2095.467 718.095 Q 2095.867 721.295 2095.467 724.295 Q 2095.067 727.295 2095.067 730.495 L 2094.267 780.095 L 2095.067 800.895 Q 2095.067 803.295 2095.267 805.695 Q 2095.467 808.095 2095.067 810.895 Q 2095.867 816.495 2095.467 822.695 Q 2095.067 828.895 2095.467 834.895 Q 2095.867 840.495 2095.267 842.895 Q 2094.667 845.295 2093.867 846.095 L 2062.267 846.095 Q 2059.067 846.095 2055.667 846.295 Q 2052.267 846.495 2049.067 846.095 Q 2048.667 846.095 2048.467 842.695 Q 2048.267 839.295 2048.267 834.695 Q 2048.267 830.095 2048.267 825.295 Q 2048.267 820.495 2048.267 818.095 Q 2048.267 812.495 2048.467 806.695 Q 2048.667 800.895 2048.267 795.295 Q 2048.267 789.695 2048.667 784.295 Q 2049.067 778.895 2048.667 773.295 Q 2048.667 769.295 2048.467 766.695 Q 2048.267 764.095 2048.267 762.095 L 2047.467 756.095 Q 2047.467 755.295 2047.667 755.095 Q 2047.867 754.895 2047.867 754.095 Q 2046.267 744.895 2046.867 736.095 Q 2047.467 727.295 2046.667 718.895 Q 2047.067 716.095 2047.067 713.695 Q 2047.067 711.295 2047.067 708.895 L 2046.267 688.095 L 2047.467 638.495 Q 2047.467 635.295 2047.267 632.295 Q 2047.067 629.295 2046.667 626.095 L 2049.067 622.495 Q 2051.067 622.495 2055.867 622.295 Q 2060.667 622.095 2067.067 622.495 Q 2072.267 622.495 2074.867 621.895 Q 2077.467 621.295 2080.667 621.295 Q 2082.667 621.295 2084.067 621.895 Q 2085.467 622.495 2087.867 622.495 L 2096.267 622.495 Q 2097.467 625.695 2099.667 629.295 Q 2101.867 632.895 2103.867 636.895 Q 2108.267 645.695 2110.467 651.895 Q 2112.667 658.095 2114.667 660.895 Q 2116.267 662.895 2118.667 666.495 Q 2121.067 670.095 2123.467 674.095 Q 2125.867 678.095 2128.067 682.295 Q 2130.267 686.495 2132.267 689.695 Z M 2428.667 661.695 Q 2430.667 671.295 2433.267 681.495 Q 2435.867 691.695 2435.867 702.095 Q 2437.467 706.895 2437.667 713.495 Q 2437.867 720.095 2437.867 724.495 Q 2437.867 729.695 2437.667 733.495 Q 2437.467 737.295 2435.867 742.895 Q 2435.867 747.695 2435.467 754.095 Q 2435.067 760.495 2432.667 765.295 Q 2431.467 768.095 2431.467 772.495 Q 2431.467 776.895 2429.467 781.295 L 2424.667 792.495 Q 2421.867 799.295 2418.467 805.895 Q 2415.067 812.495 2411.867 816.895 Q 2411.067 818.495 2408.867 820.895 Q 2406.667 823.295 2404.267 826.095 Q 2401.867 828.895 2399.267 831.295 Q 2396.667 833.695 2395.067 835.295 Q 2391.467 838.895 2387.867 841.895 Q 2384.267 844.895 2379.467 846.895 Q 2377.867 847.695 2376.267 848.295 Q 2374.667 848.895 2372.667 849.295 Q 2367.467 850.095 2363.067 850.695 Q 2358.667 851.295 2354.267 851.695 Q 2351.467 851.695 2346.867 851.695 Q 2342.267 851.695 2337.467 851.495 Q 2332.667 851.295 2328.667 850.895 Q 2324.667 850.495 2323.467 850.095 Q 2316.267 847.295 2310.067 844.495 Q 2303.867 841.695 2298.667 836.095 L 2281.867 822.095 Q 2273.067 814.895 2267.867 805.495 Q 2262.667 796.095 2259.467 785.695 Q 2257.467 780.895 2257.067 776.895 Q 2256.667 772.895 2254.667 769.695 Q 2252.667 758.095 2251.267 748.495 Q 2249.867 738.895 2250.267 728.495 Q 2250.667 723.695 2250.667 717.695 Q 2250.667 711.695 2251.467 706.095 Q 2251.867 704.895 2252.667 700.095 Q 2253.467 695.295 2254.267 689.895 Q 2255.067 684.495 2255.867 679.495 Q 2256.667 674.495 2257.067 673.295 Q 2260.667 661.695 2264.467 652.295 Q 2268.267 642.895 2274.667 635.695 L 2286.267 622.895 Q 2288.267 620.895 2291.267 619.095 Q 2294.267 617.295 2296.667 615.695 L 2305.467 610.495 Q 2309.467 607.695 2317.067 605.495 Q 2324.667 603.295 2329.867 602.495 Q 2335.067 601.695 2341.267 601.295 Q 2347.467 600.895 2353.867 600.895 Q 2359.467 600.895 2363.267 602.095 Q 2367.067 603.295 2371.867 604.895 Q 2373.467 605.295 2376.667 606.295 Q 2379.867 607.295 2383.667 609.095 Q 2387.467 610.895 2391.467 613.495 Q 2395.467 616.095 2398.267 618.895 Q 2400.667 621.695 2405.267 624.695 Q 2409.867 627.695 2411.867 631.295 Q 2412.667 632.895 2414.067 634.495 Q 2415.467 636.095 2416.667 637.695 Q 2419.867 642.495 2424.267 649.695 Q 2428.667 656.895 2428.667 661.695 Z M 2345.067 751.695 Q 2346.667 751.695 2347.067 750.895 Q 2347.467 750.095 2349.467 749.695 Q 2352.267 749.295 2353.467 747.095 Q 2354.667 744.895 2356.667 742.895 Q 2358.267 734.095 2358.467 726.895 Q 2358.667 719.695 2358.667 710.895 Q 2358.667 707.695 2357.067 704.695 Q 2355.467 701.695 2351.867 700.095 Q 2348.267 698.095 2346.267 698.095 Q 2344.267 698.095 2341.067 700.095 Q 2340.267 700.095 2339.467 700.495 Q 2338.667 700.895 2337.867 701.295 L 2336.267 702.095 Q 2334.267 705.695 2332.667 708.895 Q 2331.067 712.095 2331.067 715.295 L 2331.067 735.295 Q 2331.867 741.695 2334.267 745.295 Q 2336.667 748.895 2341.067 751.695 Z M 2545.067 601.695 Q 2549.067 600.095 2557.067 600.895 Q 2565.067 601.695 2569.867 601.695 Q 2572.667 601.695 2577.267 601.895 Q 2581.867 602.095 2587.067 602.695 Q 2592.267 603.295 2596.867 603.495 Q 2601.467 603.695 2603.867 603.695 Q 2607.467 603.695 2613.867 603.895 Q 2620.267 604.095 2623.467 605.695 Q 2625.067 606.495 2630.467 607.095 Q 2635.867 607.695 2637.067 608.095 Q 2639.067 608.095 2639.467 608.295 Q 2639.867 608.495 2641.467 610.095 Q 2641.467 614.095 2640.467 617.495 Q 2639.467 620.895 2639.467 624.095 Q 2636.667 624.095 2633.467 624.495 Q 2630.267 624.895 2627.867 625.295 Q 2623.867 626.095 2621.667 625.895 Q 2619.467 625.695 2614.267 625.695 Q 2609.467 625.695 2604.067 626.095 Q 2598.667 626.495 2594.267 626.895 Q 2589.867 627.295 2586.867 627.695 Q 2583.867 628.095 2583.467 628.095 Q 2579.067 628.895 2571.867 630.495 Q 2564.667 632.095 2557.067 634.295 Q 2549.467 636.495 2543.067 639.295 Q 2536.667 642.095 2534.267 644.895 Q 2530.667 650.095 2527.267 653.095 Q 2523.867 656.095 2522.267 661.695 Q 2521.467 663.295 2521.467 667.095 Q 2521.467 670.895 2521.667 675.095 Q 2521.867 679.295 2522.667 683.295 Q 2523.467 687.295 2524.667 689.295 Q 2527.867 692.895 2529.867 696.495 Q 2531.867 700.095 2533.067 700.895 Q 2535.867 702.495 2540.067 704.895 Q 2544.267 707.295 2548.667 709.295 Q 2549.467 709.695 2553.667 710.295 Q 2557.867 710.895 2563.467 712.495 Q 2566.667 713.295 2567.467 713.695 Q 2568.267 714.095 2571.067 714.895 Q 2573.067 715.695 2573.867 716.095 Q 2574.667 716.495 2576.667 717.295 Q 2579.067 718.095 2582.067 718.695 Q 2585.067 719.295 2585.467 719.295 Q 2588.667 719.295 2592.067 720.295 Q 2595.467 721.295 2598.667 721.295 Q 2604.267 722.895 2609.067 723.695 Q 2613.867 724.495 2619.067 728.095 Q 2621.867 728.895 2625.067 730.095 Q 2628.267 731.295 2630.267 732.495 Q 2631.467 733.295 2634.867 735.095 Q 2638.267 736.895 2641.867 739.295 Q 2645.467 741.695 2648.667 744.495 Q 2651.867 747.295 2652.667 749.295 Q 2656.667 755.695 2658.267 762.295 Q 2659.867 768.895 2659.867 775.695 Q 2659.867 777.695 2659.267 780.895 Q 2658.667 784.095 2658.267 786.095 L 2656.267 797.295 Q 2655.467 799.295 2652.667 804.495 Q 2649.867 809.695 2649.067 810.495 Q 2648.667 811.295 2647.067 813.095 Q 2645.467 814.895 2643.667 816.695 Q 2641.867 818.495 2640.267 819.895 Q 2638.667 821.295 2638.267 821.695 Q 2635.467 824.095 2629.667 828.095 Q 2623.867 832.095 2617.267 836.295 Q 2610.667 840.495 2604.467 843.495 Q 2598.267 846.495 2594.267 846.495 Q 2593.467 847.295 2592.267 847.095 Q 2591.067 846.895 2589.867 847.695 Q 2585.467 847.695 2581.467 848.295 Q 2577.467 848.895 2570.667 848.495 Q 2564.667 848.095 2559.267 848.695 Q 2553.867 849.295 2547.467 848.895 Q 2544.267 848.895 2537.867 848.895 Q 2531.467 848.895 2524.267 848.695 Q 2517.067 848.495 2510.467 848.095 Q 2503.867 847.695 2499.867 846.495 Q 2499.467 846.495 2497.267 846.095 Q 2495.067 845.695 2492.467 845.495 Q 2489.867 845.295 2487.467 844.895 Q 2485.067 844.495 2483.867 844.495 Q 2480.667 844.095 2474.467 843.295 Q 2468.267 842.495 2465.867 841.695 Q 2464.267 840.895 2462.467 839.495 Q 2460.667 838.095 2460.667 836.095 Q 2459.867 834.495 2458.467 829.895 Q 2457.067 825.295 2455.867 820.295 Q 2454.667 815.295 2454.067 811.295 Q 2453.467 807.295 2454.267 807.295 Q 2461.067 808.895 2468.067 810.295 Q 2475.067 811.695 2483.867 813.295 Q 2490.667 813.295 2497.467 814.695 Q 2504.267 816.095 2513.067 816.095 Q 2516.267 816.095 2519.867 815.495 Q 2523.467 814.895 2529.067 814.095 Q 2530.267 813.695 2531.467 813.695 Q 2532.667 813.695 2533.467 813.295 Q 2539.467 813.295 2547.467 809.495 Q 2555.467 805.695 2559.867 803.695 Q 2560.267 803.695 2562.067 802.495 Q 2563.867 801.295 2565.867 799.495 Q 2567.867 797.695 2569.667 796.095 Q 2571.467 794.495 2571.867 793.695 L 2579.467 782.095 Q 2580.267 780.095 2581.667 777.495 Q 2583.067 774.895 2583.867 772.895 Q 2586.267 766.895 2583.867 757.695 Q 2581.467 755.695 2580.067 753.295 Q 2578.667 750.895 2576.267 748.095 Q 2574.267 744.895 2571.467 743.095 Q 2568.667 741.295 2565.467 739.695 Q 2559.867 737.695 2555.067 735.895 Q 2550.267 734.095 2547.067 734.095 Q 2541.467 732.495 2538.067 732.095 Q 2534.667 731.695 2531.467 730.095 Q 2526.267 728.495 2522.467 728.095 Q 2518.667 727.695 2515.467 725.695 Q 2510.267 725.695 2506.467 724.295 Q 2502.667 722.895 2497.067 721.295 Q 2495.067 720.095 2492.667 718.895 Q 2490.267 717.695 2489.067 716.895 Q 2483.467 712.495 2479.467 709.695 Q 2475.467 706.895 2471.067 701.295 Q 2467.067 696.095 2465.467 694.295 Q 2463.867 692.495 2461.467 687.695 Q 2460.667 685.695 2459.867 682.295 Q 2459.067 678.895 2458.667 675.495 Q 2458.267 672.095 2458.067 669.095 Q 2457.867 666.095 2457.867 664.895 Q 2457.867 659.695 2458.267 656.495 Q 2458.667 653.295 2459.067 649.695 Q 2459.467 646.495 2461.067 642.895 Q 2462.667 639.295 2464.667 636.895 Q 2469.067 628.895 2474.667 625.495 Q 2480.267 622.095 2487.467 616.895 Q 2489.067 615.695 2492.467 613.895 Q 2495.867 612.095 2499.667 610.495 Q 2503.467 608.895 2507.067 607.695 Q 2510.667 606.495 2513.067 605.695 Q 2516.267 605.695 2518.667 604.695 Q 2521.067 603.695 2524.667 603.695 Q 2527.867 603.695 2529.667 603.295 Q 2531.467 602.895 2534.667 602.895 Q 2536.667 602.895 2538.867 603.095 Q 2541.067 603.295 2545.067 601.695 Z M 2693.467 788.495 Q 2696.267 780.495 2699.267 772.695 Q 2702.267 764.895 2705.067 756.895 Q 2707.067 750.895 2710.267 744.895 Q 2713.467 738.895 2715.867 734.095 Q 2717.867 727.295 2720.067 723.095 Q 2722.267 718.895 2722.667 717.695 Q 2722.667 716.895 2724.467 713.695 Q 2726.267 710.495 2728.667 703.295 Q 2729.867 699.695 2730.867 695.695 Q 2731.867 691.695 2733.467 688.095 L 2743.067 664.895 Q 2744.667 660.495 2745.267 658.295 Q 2745.867 656.095 2746.267 654.495 Q 2746.667 652.895 2747.067 650.895 Q 2747.467 648.895 2749.467 644.495 Q 2751.467 640.095 2752.867 636.095 Q 2754.267 632.095 2756.267 627.695 Q 2757.067 625.295 2757.867 622.895 Q 2758.667 620.495 2759.467 618.095 Q 2760.667 614.895 2761.467 612.495 Q 2762.267 610.095 2763.067 606.895 Q 2763.867 606.095 2764.267 604.695 Q 2764.667 603.295 2765.867 601.295 Q 2768.267 599.695 2769.867 599.495 Q 2771.467 599.295 2773.067 599.295 L 2791.467 599.295 Q 2792.267 600.895 2792.267 602.295 Q 2792.267 603.695 2793.067 605.295 L 2794.667 611.295 L 2795.867 614.495 L 2800.267 626.895 L 2807.467 647.295 L 2810.267 652.495 Q 2811.067 653.295 2811.867 655.895 Q 2812.667 658.495 2814.267 662.495 Q 2816.267 667.695 2818.467 674.295 Q 2820.667 680.895 2822.667 687.295 Q 2825.467 697.295 2827.267 702.095 Q 2829.067 706.895 2831.067 712.095 Q 2832.267 713.695 2832.667 715.695 Q 2833.067 717.695 2833.867 719.695 L 2839.067 736.095 L 2845.867 750.495 Q 2847.067 754.095 2848.467 757.495 Q 2849.867 760.895 2851.867 764.095 Q 2855.067 772.095 2857.067 778.695 Q 2859.067 785.295 2862.267 793.295 Q 2863.867 796.895 2865.667 800.095 Q 2867.467 803.295 2868.667 806.895 Q 2869.467 808.895 2870.267 810.895 Q 2871.067 812.895 2871.867 814.895 Q 2873.867 818.495 2875.267 822.295 Q 2876.667 826.095 2878.667 830.495 Q 2879.467 832.895 2880.667 835.295 Q 2881.867 837.695 2882.267 839.695 Q 2880.267 839.695 2878.267 839.295 Q 2876.267 838.895 2874.667 838.895 L 2867.867 838.895 Q 2864.267 838.895 2861.467 839.095 Q 2858.667 839.295 2856.667 839.295 Q 2854.667 834.495 2850.867 829.895 Q 2847.067 825.295 2843.067 818.495 Q 2842.267 816.495 2841.467 814.895 Q 2840.667 813.295 2839.867 811.695 Q 2839.067 809.295 2835.267 804.895 Q 2831.467 800.495 2831.067 798.095 Q 2827.867 794.495 2826.467 792.295 Q 2825.067 790.095 2823.067 788.095 Q 2821.467 788.095 2819.067 787.895 Q 2816.667 787.695 2814.667 787.295 Q 2812.267 786.895 2809.467 786.895 L 2799.867 786.895 Q 2797.867 786.895 2795.667 787.095 Q 2793.467 787.295 2789.067 787.495 Q 2784.667 787.695 2777.067 787.895 Q 2769.467 788.095 2756.667 788.095 L 2753.867 788.095 Q 2750.667 788.095 2748.867 788.695 Q 2747.067 789.295 2743.867 788.095 Q 2742.667 787.295 2738.067 787.695 Q 2733.467 788.095 2731.867 788.495 L 2726.667 788.895 L 2724.667 791.695 Q 2723.867 794.095 2721.867 797.295 Q 2719.867 800.495 2717.867 803.695 Q 2715.867 806.895 2714.067 810.095 Q 2712.267 813.295 2711.467 815.295 L 2708.667 822.495 L 2698.667 840.895 Q 2697.867 842.495 2696.267 842.495 Q 2694.667 842.495 2693.867 843.295 L 2673.467 843.295 Q 2671.867 841.695 2671.867 841.295 Q 2671.867 840.895 2673.467 838.895 Q 2673.467 837.295 2674.667 834.295 Q 2675.867 831.295 2675.867 829.695 Q 2677.867 826.495 2679.267 823.095 Q 2680.667 819.695 2682.267 816.495 Z M 2777.467 689.295 Q 2775.467 690.095 2774.667 691.295 Q 2773.867 692.495 2773.067 694.095 Q 2771.467 699.695 2768.867 705.095 Q 2766.267 710.495 2763.867 716.095 Q 2761.867 720.095 2759.867 723.495 Q 2757.867 726.895 2756.267 730.895 Q 2752.667 738.895 2749.067 746.695 Q 2745.467 754.495 2741.067 762.095 L 2743.467 762.095 Q 2746.667 762.095 2749.267 762.495 Q 2751.867 762.895 2754.667 762.095 Q 2757.067 761.295 2759.267 761.695 Q 2761.467 762.095 2763.467 762.095 Q 2770.267 762.095 2777.467 761.895 Q 2784.667 761.695 2793.467 762.495 Q 2797.867 762.895 2801.667 762.495 Q 2805.467 762.095 2809.467 762.095 L 2813.067 762.095 Q 2812.667 760.495 2812.067 759.495 Q 2811.467 758.495 2810.667 757.295 Q 2809.067 754.095 2807.267 751.695 Q 2805.467 749.295 2804.267 745.695 L 2790.267 717.695 Q 2789.467 715.695 2788.667 712.495 Z M 3161.865 627.295 Q 3161.865 630.495 3162.265 630.895 Q 3162.665 631.295 3161.865 635.695 L 3161.865 702.095 Q 3161.865 710.095 3160.665 718.695 Q 3159.465 727.295 3159.465 735.295 Q 3159.465 742.495 3158.665 747.895 Q 3157.865 753.295 3157.865 758.895 Q 3157.865 762.095 3156.465 768.895 Q 3155.065 775.695 3153.065 781.295 Q 3151.465 782.895 3151.065 785.695 Q 3150.665 788.495 3148.665 792.095 Q 3148.265 792.895 3145.865 796.695 Q 3143.465 800.495 3140.465 804.495 Q 3137.465 808.495 3135.065 811.895 Q 3132.665 815.295 3132.265 815.695 Q 3127.065 820.095 3124.065 822.695 Q 3121.065 825.295 3114.265 828.095 Q 3113.465 828.895 3109.865 829.295 Q 3106.265 829.695 3105.465 830.495 Q 3102.265 832.095 3097.665 832.495 Q 3093.065 832.895 3087.865 834.895 L 3080.665 834.895 Q 3076.265 835.695 3071.665 835.895 Q 3067.065 836.095 3064.665 836.095 Q 3059.865 836.095 3052.865 835.895 Q 3045.865 835.695 3038.465 835.495 Q 3031.065 835.295 3023.865 835.095 Q 3016.665 834.895 3011.065 834.895 Q 3005.465 834.895 2999.265 833.495 Q 2993.065 832.095 2988.665 830.495 Q 2987.865 829.695 2985.465 829.495 Q 2983.065 829.295 2981.465 828.495 Q 2979.865 827.695 2976.465 826.295 Q 2973.065 824.895 2969.465 823.495 Q 2965.865 822.095 2962.865 820.495 Q 2959.865 818.895 2959.065 818.095 Q 2951.465 814.095 2941.465 805.295 Q 2931.465 796.495 2925.065 782.095 Q 2922.265 776.095 2919.465 771.095 Q 2916.665 766.095 2915.465 760.495 Q 2914.265 754.895 2913.265 749.095 Q 2912.265 743.295 2911.465 738.095 Q 2910.665 733.695 2911.065 729.695 Q 2911.465 725.695 2911.465 720.495 L 2911.465 706.095 Q 2911.065 702.095 2910.465 695.495 Q 2909.865 688.895 2911.465 685.695 L 2911.465 622.895 Q 2911.865 622.495 2913.665 622.295 Q 2915.465 622.095 2917.865 621.695 Q 2920.265 621.295 2922.665 621.095 Q 2925.065 620.895 2926.665 620.895 Q 2932.265 620.895 2936.865 621.895 Q 2941.465 622.895 2944.665 622.895 Q 2950.265 623.695 2955.265 624.095 Q 2960.265 624.495 2965.465 622.895 Q 2967.465 624.495 2967.665 627.095 Q 2967.865 629.695 2967.865 631.295 Q 2967.865 638.495 2967.465 645.495 Q 2967.065 652.495 2966.265 661.295 Q 2966.265 667.695 2965.865 676.095 Q 2965.465 684.495 2965.465 692.495 L 2965.465 712.895 Q 2965.465 721.695 2965.665 728.895 Q 2965.865 736.095 2967.865 744.895 Q 2967.865 746.095 2968.665 750.295 Q 2969.465 754.495 2970.665 759.295 Q 2971.865 764.095 2972.865 768.495 Q 2973.865 772.895 2974.665 774.095 Q 2976.265 775.695 2977.465 778.295 Q 2978.665 780.895 2979.465 783.295 Q 2982.265 789.295 2987.665 792.895 Q 2993.065 796.495 2998.665 800.895 Q 3003.065 804.495 3007.865 806.695 Q 3012.665 808.895 3019.065 810.495 Q 3019.865 810.895 3022.065 810.895 Q 3024.265 810.895 3026.265 810.895 L 3036.665 811.695 Q 3039.865 812.095 3043.665 812.295 Q 3047.465 812.495 3050.665 811.695 L 3057.865 810.095 Q 3058.265 810.095 3060.665 809.095 Q 3063.065 808.095 3065.665 806.895 Q 3068.265 805.695 3070.865 804.695 Q 3073.465 803.695 3074.265 802.895 Q 3081.065 798.495 3084.665 794.295 Q 3088.265 790.095 3091.465 783.295 Q 3092.265 780.895 3094.265 775.495 Q 3096.265 770.095 3097.465 768.095 Q 3099.465 762.095 3100.065 757.295 Q 3100.665 752.495 3101.465 747.295 Q 3101.465 744.095 3101.465 731.695 Q 3101.465 719.295 3102.265 695.695 Q 3102.665 687.295 3102.665 678.895 Q 3102.665 670.495 3102.665 662.095 Q 3103.065 653.295 3102.665 644.095 Q 3102.265 634.895 3103.065 627.295 L 3105.465 627.295 Q 3111.065 628.895 3117.265 628.095 Q 3123.465 627.295 3130.665 627.295 L 3143.865 627.295 Q 3145.865 627.295 3150.065 627.895 Q 3154.265 628.495 3161.865 627.295 Z M 3194.665 735.695 Q 3194.265 731.695 3194.865 728.095 Q 3195.465 724.495 3195.465 720.895 Q 3195.465 714.495 3195.265 708.695 Q 3195.065 702.895 3195.065 696.495 L 3195.065 677.695 Q 3195.065 675.695 3194.865 673.495 Q 3194.665 671.295 3194.265 669.295 L 3194.265 632.095 Q 3194.665 627.295 3194.465 620.295 Q 3194.265 613.295 3194.265 611.295 Q 3194.265 610.095 3193.865 608.895 Q 3193.465 607.695 3193.865 606.895 Q 3195.865 606.895 3198.065 606.495 Q 3200.265 606.095 3203.865 606.095 Q 3207.065 605.695 3210.265 605.295 Q 3213.465 604.895 3217.465 604.895 L 3235.465 604.895 Q 3238.665 604.895 3241.065 605.095 Q 3243.465 605.295 3247.465 606.095 Q 3247.865 606.495 3248.265 606.495 Q 3248.665 606.895 3250.665 606.895 Q 3253.065 606.095 3257.665 606.495 Q 3262.265 606.895 3267.065 607.295 Q 3270.265 607.695 3273.065 608.895 Q 3275.865 610.095 3277.865 610.095 Q 3278.665 610.095 3281.865 611.495 Q 3285.065 612.895 3288.665 614.695 Q 3292.265 616.495 3295.265 617.895 Q 3298.265 619.295 3299.465 619.695 Q 3304.665 621.695 3309.265 624.695 Q 3313.865 627.695 3316.265 631.295 Q 3319.865 633.695 3321.465 637.495 Q 3323.065 641.295 3325.465 644.495 Q 3326.665 646.095 3327.065 648.495 Q 3327.465 650.895 3329.065 652.895 Q 3331.065 655.695 3332.065 661.095 Q 3333.065 666.495 3333.265 672.495 Q 3333.465 678.495 3333.065 684.695 Q 3332.665 690.895 3332.265 695.695 Q 3331.465 699.695 3330.665 703.095 Q 3329.865 706.495 3329.065 710.895 Q 3328.665 712.895 3327.265 715.295 Q 3325.865 717.695 3325.065 719.695 Q 3321.865 727.295 3314.665 734.495 L 3311.065 738.495 Q 3309.465 739.295 3308.265 740.495 Q 3307.065 741.695 3305.465 742.895 Q 3303.465 744.895 3300.865 746.095 Q 3298.265 747.295 3296.265 749.295 Q 3290.665 749.295 3286.865 751.295 Q 3283.065 753.295 3278.265 751.695 Q 3274.265 751.695 3271.065 752.695 Q 3267.865 753.695 3264.665 753.695 L 3262.265 753.695 Q 3262.265 755.695 3266.665 760.495 Q 3271.065 765.295 3273.065 769.295 Q 3276.265 772.495 3278.865 775.095 Q 3281.465 777.695 3284.665 781.295 Q 3289.865 786.095 3292.265 789.095 Q 3294.665 792.095 3299.865 796.895 Q 3302.265 798.895 3305.665 804.695 Q 3309.065 810.495 3311.465 812.495 Q 3313.865 816.095 3314.465 817.295 Q 3315.065 818.495 3316.665 820.095 Q 3319.865 824.495 3321.865 827.895 Q 3323.865 831.295 3326.265 834.495 Q 3324.265 838.095 3320.665 841.895 Q 3317.065 845.695 3311.465 848.895 Q 3310.665 847.695 3309.065 846.695 Q 3307.465 845.695 3306.665 844.095 Q 3305.865 843.295 3301.265 839.295 Q 3296.665 835.295 3293.465 831.695 Q 3291.465 828.895 3286.865 824.295 Q 3282.265 819.695 3276.665 814.895 Q 3271.065 810.095 3266.665 805.095 Q 3262.265 800.095 3259.865 797.295 Q 3258.665 796.095 3255.865 793.495 Q 3253.065 790.895 3249.865 788.295 Q 3246.665 785.695 3243.865 783.095 Q 3241.065 780.495 3239.865 779.295 Q 3239.065 780.095 3238.865 780.695 Q 3238.665 781.295 3238.265 782.095 Q 3237.865 782.895 3237.865 783.695 Q 3237.865 791.695 3237.265 798.695 Q 3236.665 805.695 3236.665 812.495 Q 3236.665 816.095 3236.465 819.895 Q 3236.265 823.695 3236.265 828.495 L 3236.265 842.495 Q 3235.465 842.495 3233.465 842.695 Q 3231.465 842.895 3229.065 843.295 Q 3224.665 844.095 3220.465 843.895 Q 3216.265 843.695 3212.265 843.695 Q 3207.065 843.695 3203.665 843.695 Q 3200.265 843.695 3197.065 842.095 Q 3195.065 842.095 3194.665 842.095 Q 3194.265 842.095 3192.265 840.095 L 3192.665 808.495 L 3193.465 803.295 L 3192.665 790.495 L 3193.465 749.695 Q 3194.265 744.495 3194.065 742.095 Q 3193.865 739.695 3194.665 735.695 Z M 3264.265 688.895 Q 3265.065 684.095 3265.065 679.095 Q 3265.065 674.095 3264.665 670.095 Q 3264.665 667.695 3263.065 666.895 Q 3261.865 664.895 3260.865 664.095 Q 3259.865 663.295 3258.665 662.495 Q 3255.865 660.095 3252.665 658.695 Q 3249.465 657.295 3246.265 656.495 Q 3245.065 656.495 3244.265 658.095 Q 3243.865 658.895 3243.865 659.295 L 3243.865 700.095 L 3250.665 700.095 Q 3252.665 698.095 3254.665 697.895 Q 3256.665 697.695 3258.265 695.695 Q 3260.665 693.695 3262.065 692.695 Q 3263.465 691.695 3264.265 688.895 Z M 3621.068 627.295 Q 3621.068 630.495 3621.468 630.895 Q 3621.868 631.295 3621.068 635.695 L 3621.068 702.095 Q 3621.068 710.095 3619.868 718.695 Q 3618.668 727.295 3618.668 735.295 Q 3618.668 742.495 3617.868 747.895 Q 3617.068 753.295 3617.068 758.895 Q 3617.068 762.095 3615.668 768.895 Q 3614.268 775.695 3612.268 781.295 Q 3610.668 782.895 3610.268 785.695 Q 3609.868 788.495 3607.868 792.095 Q 3607.468 792.895 3605.068 796.695 Q 3602.668 800.495 3599.668 804.495 Q 3596.668 808.495 3594.268 811.895 Q 3591.868 815.295 3591.468 815.695 Q 3586.268 820.095 3583.268 822.695 Q 3580.268 825.295 3573.468 828.095 Q 3572.668 828.895 3569.068 829.295 Q 3565.468 829.695 3564.668 830.495 Q 3561.468 832.095 3556.868 832.495 Q 3552.268 832.895 3547.068 834.895 L 3539.868 834.895 Q 3535.468 835.695 3530.868 835.895 Q 3526.268 836.095 3523.868 836.095 Q 3519.068 836.095 3512.068 835.895 Q 3505.068 835.695 3497.668 835.495 Q 3490.268 835.295 3483.068 835.095 Q 3475.868 834.895 3470.268 834.895 Q 3464.668 834.895 3458.468 833.495 Q 3452.268 832.095 3447.868 830.495 Q 3447.068 829.695 3444.668 829.495 Q 3442.268 829.295 3440.668 828.495 Q 3439.068 827.695 3435.668 826.295 Q 3432.268 824.895 3428.668 823.495 Q 3425.068 822.095 3422.068 820.495 Q 3419.068 818.895 3418.268 818.095 Q 3410.668 814.095 3400.668 805.295 Q 3390.668 796.495 3384.268 782.095 Q 3381.468 776.095 3378.668 771.095 Q 3375.868 766.095 3374.668 760.495 Q 3373.468 754.895 3372.468 749.095 Q 3371.468 743.295 3370.668 738.095 Q 3369.868 733.695 3370.268 729.695 Q 3370.668 725.695 3370.668 720.495 L 3370.668 706.095 Q 3370.268 702.095 3369.668 695.495 Q 3369.068 688.895 3370.668 685.695 L 3370.668 622.895 Q 3371.068 622.495 3372.868 622.295 Q 3374.668 622.095 3377.068 621.695 Q 3379.468 621.295 3381.868 621.095 Q 3384.268 620.895 3385.868 620.895 Q 3391.468 620.895 3396.068 621.895 Q 3400.668 622.895 3403.868 622.895 Q 3409.468 623.695 3414.468 624.095 Q 3419.468 624.495 3424.668 622.895 Q 3426.668 624.495 3426.868 627.095 Q 3427.068 629.695 3427.068 631.295 Q 3427.068 638.495 3426.668 645.495 Q 3426.268 652.495 3425.468 661.295 Q 3425.468 667.695 3425.068 676.095 Q 3424.668 684.495 3424.668 692.495 L 3424.668 712.895 Q 3424.668 721.695 3424.868 728.895 Q 3425.068 736.095 3427.068 744.895 Q 3427.068 746.095 3427.868 750.295 Q 3428.668 754.495 3429.868 759.295 Q 3431.068 764.095 3432.068 768.495 Q 3433.068 772.895 3433.868 774.095 Q 3435.468 775.695 3436.668 778.295 Q 3437.868 780.895 3438.668 783.295 Q 3441.468 789.295 3446.868 792.895 Q 3452.268 796.495 3457.868 800.895 Q 3462.268 804.495 3467.068 806.695 Q 3471.868 808.895 3478.268 810.495 Q 3479.068 810.895 3481.268 810.895 Q 3483.468 810.895 3485.468 810.895 L 3495.868 811.695 Q 3499.068 812.095 3502.868 812.295 Q 3506.668 812.495 3509.868 811.695 L 3517.068 810.095 Q 3517.468 810.095 3519.868 809.095 Q 3522.268 808.095 3524.868 806.895 Q 3527.468 805.695 3530.068 804.695 Q 3532.668 803.695 3533.468 802.895 Q 3540.268 798.495 3543.868 794.295 Q 3547.468 790.095 3550.668 783.295 Q 3551.468 780.895 3553.468 775.495 Q 3555.468 770.095 3556.668 768.095 Q 3558.668 762.095 3559.268 757.295 Q 3559.868 752.495 3560.668 747.295 Q 3560.668 744.095 3560.668 731.695 Q 3560.668 719.295 3561.468 695.695 Q 3561.868 687.295 3561.868 678.895 Q 3561.868 670.495 3561.868 662.095 Q 3562.268 653.295 3561.868 644.095 Q 3561.468 634.895 3562.268 627.295 L 3564.668 627.295 Q 3570.268 628.895 3576.468 628.095 Q 3582.668 627.295 3589.868 627.295 L 3603.068 627.295 Q 3605.068 627.295 3609.268 627.895 Q 3613.468 628.495 3621.068 627.295 Z M 3732.668 601.695 Q 3736.668 600.095 3744.668 600.895 Q 3752.668 601.695 3757.468 601.695 Q 3760.268 601.695 3764.868 601.895 Q 3769.468 602.095 3774.668 602.695 Q 3779.868 603.295 3784.468 603.495 Q 3789.068 603.695 3791.468 603.695 Q 3795.068 603.695 3801.468 603.895 Q 3807.868 604.095 3811.068 605.695 Q 3812.668 606.495 3818.068 607.095 Q 3823.468 607.695 3824.668 608.095 Q 3826.668 608.095 3827.068 608.295 Q 3827.468 608.495 3829.068 610.095 Q 3829.068 614.095 3828.068 617.495 Q 3827.068 620.895 3827.068 624.095 Q 3824.268 624.095 3821.068 624.495 Q 3817.868 624.895 3815.468 625.295 Q 3811.468 626.095 3809.268 625.895 Q 3807.068 625.695 3801.868 625.695 Q 3797.068 625.695 3791.668 626.095 Q 3786.268 626.495 3781.868 626.895 Q 3777.468 627.295 3774.468 627.695 Q 3771.468 628.095 3771.068 628.095 Q 3766.668 628.895 3759.468 630.495 Q 3752.268 632.095 3744.668 634.295 Q 3737.068 636.495 3730.668 639.295 Q 3724.268 642.095 3721.868 644.895 Q 3718.268 650.095 3714.868 653.095 Q 3711.468 656.095 3709.868 661.695 Q 3709.068 663.295 3709.068 667.095 Q 3709.068 670.895 3709.268 675.095 Q 3709.468 679.295 3710.268 683.295 Q 3711.068 687.295 3712.268 689.295 Q 3715.468 692.895 3717.468 696.495 Q 3719.468 700.095 3720.668 700.895 Q 3723.468 702.495 3727.668 704.895 Q 3731.868 707.295 3736.268 709.295 Q 3737.068 709.695 3741.268 710.295 Q 3745.468 710.895 3751.068 712.495 Q 3754.268 713.295 3755.068 713.695 Q 3755.868 714.095 3758.668 714.895 Q 3760.668 715.695 3761.468 716.095 Q 3762.268 716.495 3764.268 717.295 Q 3766.668 718.095 3769.668 718.695 Q 3772.668 719.295 3773.068 719.295 Q 3776.268 719.295 3779.668 720.295 Q 3783.068 721.295 3786.268 721.295 Q 3791.868 722.895 3796.668 723.695 Q 3801.468 724.495 3806.668 728.095 Q 3809.468 728.895 3812.668 730.095 Q 3815.868 731.295 3817.868 732.495 Q 3819.068 733.295 3822.468 735.095 Q 3825.868 736.895 3829.468 739.295 Q 3833.068 741.695 3836.268 744.495 Q 3839.468 747.295 3840.268 749.295 Q 3844.268 755.695 3845.868 762.295 Q 3847.468 768.895 3847.468 775.695 Q 3847.468 777.695 3846.868 780.895 Q 3846.268 784.095 3845.868 786.095 L 3843.868 797.295 Q 3843.068 799.295 3840.268 804.495 Q 3837.468 809.695 3836.668 810.495 Q 3836.268 811.295 3834.668 813.095 Q 3833.068 814.895 3831.268 816.695 Q 3829.468 818.495 3827.868 819.895 Q 3826.268 821.295 3825.868 821.695 Q 3823.068 824.095 3817.268 828.095 Q 3811.468 832.095 3804.868 836.295 Q 3798.268 840.495 3792.068 843.495 Q 3785.868 846.495 3781.868 846.495 Q 3781.068 847.295 3779.868 847.095 Q 3778.668 846.895 3777.468 847.695 Q 3773.068 847.695 3769.068 848.295 Q 3765.068 848.895 3758.268 848.495 Q 3752.268 848.095 3746.868 848.695 Q 3741.468 849.295 3735.068 848.895 Q 3731.868 848.895 3725.468 848.895 Q 3719.068 848.895 3711.868 848.695 Q 3704.668 848.495 3698.068 848.095 Q 3691.468 847.695 3687.468 846.495 Q 3687.068 846.495 3684.868 846.095 Q 3682.668 845.695 3680.068 845.495 Q 3677.468 845.295 3675.068 844.895 Q 3672.668 844.495 3671.468 844.495 Q 3668.268 844.095 3662.068 843.295 Q 3655.868 842.495 3653.468 841.695 Q 3651.868 840.895 3650.068 839.495 Q 3648.268 838.095 3648.268 836.095 Q 3647.468 834.495 3646.068 829.895 Q 3644.668 825.295 3643.468 820.295 Q 3642.268 815.295 3641.668 811.295 Q 3641.068 807.295 3641.868 807.295 Q 3648.668 808.895 3655.668 810.295 Q 3662.668 811.695 3671.468 813.295 Q 3678.268 813.295 3685.068 814.695 Q 3691.868 816.095 3700.668 816.095 Q 3703.868 816.095 3707.468 815.495 Q 3711.068 814.895 3716.668 814.095 Q 3717.868 813.695 3719.068 813.695 Q 3720.268 813.695 3721.068 813.295 Q 3727.068 813.295 3735.068 809.495 Q 3743.068 805.695 3747.468 803.695 Q 3747.868 803.695 3749.668 802.495 Q 3751.468 801.295 3753.468 799.495 Q 3755.468 797.695 3757.268 796.095 Q 3759.068 794.495 3759.468 793.695 L 3767.068 782.095 Q 3767.868 780.095 3769.268 777.495 Q 3770.668 774.895 3771.468 772.895 Q 3773.868 766.895 3771.468 757.695 Q 3769.068 755.695 3767.668 753.295 Q 3766.268 750.895 3763.868 748.095 Q 3761.868 744.895 3759.068 743.095 Q 3756.268 741.295 3753.068 739.695 Q 3747.468 737.695 3742.668 735.895 Q 3737.868 734.095 3734.668 734.095 Q 3729.068 732.495 3725.668 732.095 Q 3722.268 731.695 3719.068 730.095 Q 3713.868 728.495 3710.068 728.095 Q 3706.268 727.695 3703.068 725.695 Q 3697.868 725.695 3694.068 724.295 Q 3690.268 722.895 3684.668 721.295 Q 3682.668 720.095 3680.268 718.895 Q 3677.868 717.695 3676.668 716.895 Q 3671.068 712.495 3667.068 709.695 Q 3663.068 706.895 3658.668 701.295 Q 3654.668 696.095 3653.068 694.295 Q 3651.468 692.495 3649.068 687.695 Q 3648.268 685.695 3647.468 682.295 Q 3646.668 678.895 3646.268 675.495 Q 3645.868 672.095 3645.668 669.095 Q 3645.468 666.095 3645.468 664.895 Q 3645.468 659.695 3645.868 656.495 Q 3646.268 653.295 3646.668 649.695 Q 3647.068 646.495 3648.668 642.895 Q 3650.268 639.295 3652.268 636.895 Q 3656.668 628.895 3662.268 625.495 Q 3667.868 622.095 3675.068 616.895 Q 3676.668 615.695 3680.068 613.895 Q 3683.468 612.095 3687.268 610.495 Q 3691.068 608.895 3694.668 607.695 Q 3698.268 606.495 3700.668 605.695 Q 3703.868 605.695 3706.268 604.695 Q 3708.668 603.695 3712.268 603.695 Q 3715.468 603.695 3717.268 603.295 Q 3719.068 602.895 3722.268 602.895 Q 3724.268 602.895 3726.468 603.095 Q 3728.668 603.295 3732.668 601.695 Z" style="fill: rgb(51, 51, 51); text-transform: uppercase;"/>
</svg>
